<svg width="200" height="173" viewBox="0 0 200 173" fill="none" xmlns="http://www.w3.org/2000/svg">
<g clip-path="url(#clip0_40_84)">
<path d="M83.1939 149.637L85.3783 142.523C82.75 139.63 79.4554 137.423 75.7804 136.092C79.3708 142.041 75.8917 149.8 77.3415 156.595C77.8099 158.711 78.7485 160.694 80.0876 162.398C81.4267 164.102 83.132 165.483 85.0773 166.438L88.3921 170.545C90.1299 167.509 91.1888 164.132 91.4959 160.647C91.803 157.162 91.3509 153.653 90.1709 150.359C89.4906 148.518 88.5812 146.77 87.4641 145.157C85.4943 147.472 83.1939 149.637 83.1939 149.637Z" fill="#F2F2F2"/>
<path d="M71.1827 150.546L69.9651 143.204C66.3226 141.787 62.3893 141.281 58.5068 141.729C64.3732 145.452 64.7199 153.949 69.0479 159.384C70.4108 161.069 72.1353 162.425 74.0938 163.353C76.0522 164.281 78.1943 164.756 80.3613 164.743L85.16 166.941C85.3613 163.449 84.8031 159.954 83.5238 156.698C82.2445 153.442 80.2745 150.502 77.7496 148.081C76.3197 146.736 74.7261 145.578 73.0066 144.631C72.2763 147.583 71.1827 150.546 71.1827 150.546Z" fill="#F2F2F2"/>
<path d="M142.676 168.719L139.311 168.719L137.711 155.741L142.677 155.741L142.676 168.719Z" fill="#FFB6B6"/>
<path d="M143.534 171.981L132.685 171.98V171.843C132.685 170.723 133.13 169.649 133.922 168.857C134.714 168.065 135.788 167.62 136.908 167.62H136.908L138.89 166.117L142.588 167.621L143.535 167.621L143.534 171.981Z" fill="#2F2E41"/>
<path d="M197.029 156.446L194.735 158.908L184.149 151.23L187.535 147.598L197.029 156.446Z" fill="#FFB6B6"/>
<path d="M200 158.042L192.603 165.979L192.502 165.885C191.683 165.122 191.201 164.064 191.161 162.945C191.122 161.825 191.529 160.736 192.292 159.917L192.544 157.442L196.165 155.762L196.811 155.07L200 158.042Z" fill="#2F2E41"/>
<path d="M192.05 149.153L188.494 156.591L166.655 142.131L163.478 137.803L153.061 123.609L148.826 130.328L145.88 137.352C144.92 137.978 144.111 138.81 143.511 139.787C142.911 140.765 142.536 141.863 142.413 143.002L142.278 144.246L144.14 160.984L137.063 163.156L132.999 140.672L134.327 135.8L135.695 128.96L142.582 107.348H161.011L171.581 129.847L172.353 134.432L175.35 137.871L192.05 149.153Z" fill="#2F2E41"/>
<path d="M153.752 71.9891L156.854 74.3514L160.595 75.5011C160.595 75.5011 162.142 97.2576 163.536 98.6513C164.929 100.045 163.672 100.082 163.952 101.893C164.233 103.703 164.913 107.414 164.913 107.414C155.506 112.394 147.396 112.528 140.881 106.701C140.798 106.34 140.84 105.962 141.002 105.629C141.163 105.296 141.433 105.028 141.767 104.869C142.979 104.226 140.649 101.223 141.64 100.721C142.631 100.219 141.237 95.8639 141.237 95.8639L142.151 86.7772L141.429 85.3247L143.192 76.4368L146.25 75.3198L147.472 72.3761L153.752 71.9891Z" fill="#3F3D56"/>
<path d="M155.695 110.658C155.681 110.265 155.754 109.874 155.907 109.512C156.061 109.15 156.292 108.826 156.584 108.563C156.877 108.3 157.223 108.105 157.599 107.99C157.975 107.876 158.372 107.845 158.761 107.9L163.133 99.4021L165.569 103.73L161.044 111.136C160.908 111.784 160.538 112.359 160.006 112.753C159.474 113.147 158.816 113.332 158.157 113.273C157.498 113.214 156.883 112.915 156.429 112.433C155.975 111.951 155.714 111.319 155.695 110.658Z" fill="#FFB6B6"/>
<path d="M163.058 108.579L172.436 94.0449L172.405 93.978C172.369 93.9014 170.246 89.3152 168.188 85.1145C167.871 84.4676 167.556 83.8298 167.25 83.2191C167.118 82.9555 166.988 82.6974 166.86 82.4448C165.996 80.7411 165.241 79.3329 164.79 78.664C163.793 77.1516 162.309 76.0257 160.584 75.4732L160.54 75.462L160.499 75.4793C159.655 75.8354 158.958 76.4683 158.522 77.2739C158.086 78.0794 157.938 79.0093 158.102 79.9104C158.915 84.2568 160.728 88.3546 163.396 91.8805L164.916 93.8843L159.633 105.37L163.058 108.579Z" fill="#3F3D56"/>
<path d="M130.812 52.8678C131.07 53.1642 131.26 53.5137 131.368 53.8916C131.477 54.2695 131.501 54.6665 131.44 55.0549C131.378 55.4432 131.232 55.8133 131.012 56.1391C130.792 56.4649 130.504 56.7385 130.166 56.9407L132.121 66.2954L127.504 64.4672L126.355 55.8641C126.053 55.2751 125.978 54.5957 126.143 53.9548C126.309 53.3139 126.703 52.7559 127.253 52.3865C127.802 52.0172 128.468 51.8622 129.124 51.9509C129.779 52.0396 130.38 52.3658 130.812 52.8678Z" fill="#FFB6B6"/>
<path d="M126.401 59.1191L128.268 76.3147L128.334 76.3472C128.389 76.374 130.754 77.5343 133.658 78.9161C134.148 79.1492 134.078 80.1591 134.59 80.4004C134.943 80.5666 135.874 79.9634 136.23 80.1301C139.404 81.6144 142.614 83.0577 143.893 83.4488C145.62 83.9959 147.482 83.9359 149.17 83.2789L149.21 83.2602L149.232 83.2207C149.663 82.4128 149.806 81.482 149.637 80.5818C149.469 79.6817 148.998 78.8659 148.304 78.2689C144.935 75.4047 140.946 73.3627 136.653 72.304L134.21 71.7046L131.082 59.4553L126.401 59.1191Z" fill="#3F3D56"/>
<path d="M150.444 71.0148C153.833 71.0148 156.58 68.2675 156.58 64.8785C156.58 61.4894 153.833 58.7421 150.444 58.7421C147.055 58.7421 144.308 61.4894 144.308 64.8785C144.308 68.2675 147.055 71.0148 150.444 71.0148Z" fill="#FFB6B6"/>
<path d="M144.352 60.7666C144.856 59.2985 147.368 58.2802 151.441 58.1386C155.514 57.997 156.546 62.7963 156.546 62.7963C159.265 65.0017 153.643 70.9062 153.371 70.6936L153.494 69.5842C153.696 67.7468 154.557 66.313 153.462 64.3981L152.412 64.4101C151.054 64.6711 149.697 64.932 148.34 65.193L149.947 63.7784L149.902 63.7083C149.218 64.0642 148.474 64.2901 147.709 64.3742C146.845 64.4249 145.901 64.0813 145.487 63.3215C145.377 63.1127 145.309 62.8839 145.289 62.6485C144.124 63.1138 143.592 64.5493 143.592 64.5493C143.592 64.5493 143.847 62.2347 144.352 60.7666Z" fill="#2F2E41"/>
<path d="M24.7234 61.1347C24.6401 61.0291 24.5504 60.9288 24.4549 60.8342C24.4782 60.8021 24.5016 60.767 24.5249 60.735L24.7234 61.1347Z" fill="#2F2E41"/>
<path d="M25.9168 85.8149C24.913 87.5978 22.9084 88.5928 20.9212 89.0801C18.6892 89.6648 16.3388 89.6193 14.1311 88.9488C13.851 88.8584 13.5708 88.7533 13.2995 88.6366C13.4299 88.2901 13.5334 87.934 13.6088 87.5715C13.7104 87.081 13.7612 86.5814 13.7605 86.0805C13.5394 86.5119 13.253 86.9066 12.9114 87.2506C12.6479 87.5274 12.3486 87.7678 12.0214 87.9655C11.0067 87.3496 10.128 86.5335 9.43901 85.5669C9.48276 85.4589 9.52655 85.351 9.5674 85.243C9.77929 84.6791 9.94708 84.0996 10.0693 83.5097C10.2351 82.7121 10.3182 81.8995 10.3173 81.0849C9.95753 81.7868 9.49092 82.4286 8.93418 82.9874C8.76726 83.166 8.58994 83.3346 8.40313 83.4922C8.11382 82.6136 8.00199 81.6863 8.07412 80.7641C8.14625 79.8418 8.40091 78.9432 8.8233 78.1202C9.97882 75.9843 12.2198 74.7149 14.2157 73.3347C16.2145 71.9545 18.2134 70.087 18.3826 67.6622C18.4964 66.0252 17.7377 64.3853 18.0412 62.7746C18.1688 62.0954 18.4804 61.4642 18.942 60.9498C19.4036 60.4354 19.9975 60.0576 20.659 59.8575C21.3205 59.6573 22.0243 59.6425 22.6936 59.8148C23.3629 59.987 23.9721 60.3396 24.4549 60.8341C23.3227 62.439 22.1964 64.0994 21.7383 66.0077C21.2714 67.9511 21.6536 70.23 23.1856 71.5168C23.7108 71.9604 24.3557 72.2755 24.7613 72.8299C25.3011 73.5653 25.304 74.5457 25.3916 75.4503C25.5666 77.2098 26.1415 78.9022 26.4508 80.6443C26.763 82.3834 26.7805 84.2713 25.9168 85.8149Z" fill="#2F2E41"/>
<path d="M5.33978 158.176L8.00298 160.234L17.2069 150.941L13.2763 147.904L5.33978 158.176Z" fill="#A0616A"/>
<path d="M5.45308 156.166L9.857 159.167L8.46333 160.971L10.3298 166.828C10.422 167.117 10.4194 167.428 10.3222 167.716C10.2251 168.003 10.0386 168.252 9.78984 168.427C9.54112 168.601 9.24327 168.691 8.93975 168.684C8.63623 168.676 8.34295 168.572 8.10272 168.387L3.09085 164.514L3.60552 162.062L1.88967 163.586L0 162.126L5.45308 156.166Z" fill="#2F2E41"/>
<path d="M18.851 66.3189C18.8506 67.3594 19.1056 68.3841 19.5937 69.303C20.0818 70.222 20.788 71.007 21.6503 71.5893C22.5126 72.1716 23.5047 72.5333 24.5394 72.6427C25.5742 72.7521 26.62 72.6058 27.585 72.2166C28.55 71.8275 29.4047 71.2074 30.0741 70.4108C30.7435 69.6142 31.2072 68.6655 31.4243 67.6479C31.6415 66.6303 31.6055 65.5749 31.3196 64.5745C31.0337 63.574 30.5065 62.659 29.7844 61.9099L29.7539 61.8794C29.7031 61.826 29.6522 61.7726 29.5988 61.7217L29.5978 61.7215L29.597 61.721L29.5965 61.7201L29.5963 61.7192C29.5302 61.6582 29.464 61.5971 29.3954 61.5386C28.2766 60.5572 26.7042 59.4919 25.0998 59.4919C21.5883 59.4919 18.851 62.8074 18.851 66.3189Z" fill="#2F2E41"/>
<path d="M55.0831 63.0545C55.1135 63.3935 55.0692 63.7351 54.9534 64.0552C54.8375 64.3753 54.6529 64.666 54.4125 64.907C54.1721 65.148 53.8817 65.3334 53.562 65.4501C53.2422 65.5667 52.9007 65.6119 52.5616 65.5823L36.8209 79.7945L34.1121 75.5163L50.4365 62.8914C50.5239 62.325 50.8161 61.8104 51.2577 61.445C51.6992 61.0797 52.2594 60.889 52.8322 60.9091C53.405 60.9292 53.9504 61.1587 54.3653 61.5541C54.7801 61.9495 55.0355 62.4834 55.0831 63.0545Z" fill="#A0616A"/>
<path d="M30.0935 84.0843C30.0935 84.0843 30.6792 85.166 32.6797 83.4958C34.2814 82.1586 41.9545 76.3536 43.6076 73.9748C43.985 74.1244 44.4015 74.1441 44.7914 74.0309C45.1813 73.9177 45.5225 73.678 45.7612 73.3495L41.2319 69.3828C39.8767 69.5388 39.9058 70.4492 40.0469 70.9661L36.6304 72.514L27.8079 78.1522L29.6563 83.3099L30.0935 84.0843Z" fill="#B0D7FF"/>
<path d="M21.5466 94.05L21.2167 95.6211L20.9365 101.416L33.2701 102.094L32.8871 93.1809L31.6916 91.2166L21.5466 94.05Z" fill="#A0616A"/>
<path d="M26.7738 73.12C29.7176 73.12 32.1041 70.7335 32.1041 67.7896C32.1041 64.8458 29.7176 62.4593 26.7738 62.4593C23.8299 62.4593 21.4434 64.8458 21.4434 67.7896C21.4434 70.7335 23.8299 73.12 26.7738 73.12Z" fill="#A0616A"/>
<path d="M17.3104 87.4504L17.2776 83.0196C17.2768 81.4253 17.8163 79.8778 18.8081 78.6296C19.7999 77.3814 21.1853 76.506 22.7385 76.1464L22.7586 76.1417L23.8126 74.7215L28.0949 75.1499L28.8798 76.754L31.9827 78.6017L33.1774 82.4422C33.6956 82.7876 34.1373 83.2358 34.4749 83.7591C34.8125 84.2824 35.0389 84.8695 35.1401 85.484C35.5457 88.0748 33.7317 90.6671 33.5159 90.9644L32.9599 94.0955L20.8654 96.2295L20.7672 96.242L17.3104 87.4504Z" fill="#B0D7FF"/>
<path d="M33.2964 66.8393C32.6746 67.2331 32.0295 67.5888 31.3646 67.9044C30.6898 68.2286 29.984 68.4837 29.2579 68.666C29.0501 68.2102 28.7959 67.777 28.4992 67.3733C28.5755 67.8516 28.5775 68.3388 28.505 68.8177C27.3015 69.0119 26.0688 68.9108 24.913 68.523L23.9092 66.8394L23.8334 68.7185C23.0017 68.8703 22.173 69.0133 21.3414 69.1621C21.2918 69.1679 21.2422 69.1796 21.1955 69.1883C20.679 66.8598 21.4114 64.2949 23.0397 62.7425C23.8481 61.9798 24.8565 61.4625 25.9476 61.2507C27.0386 61.0389 28.1674 61.1413 29.2024 61.5462C29.3338 61.5987 29.468 61.657 29.5964 61.7183L29.5966 61.7194L29.5972 61.7204L29.5981 61.721L29.5993 61.7212C29.6751 61.7592 29.7393 61.8496 29.824 61.8409C33.4656 61.4352 33.5823 64.2598 33.2964 66.8393Z" fill="#2F2E41"/>
<path d="M24.4289 151.303L27.0962 153.355L36.2815 144.044L32.3449 141.015L24.4289 151.303Z" fill="#A0616A"/>
<path d="M24.78 149.478L29.1899 152.471L27.7999 154.277L29.6782 160.13C29.771 160.419 29.769 160.731 29.6724 161.018C29.5759 161.306 29.3898 161.556 29.1415 161.73C28.8931 161.905 28.5954 161.996 28.2919 161.989C27.9884 161.982 27.6949 161.879 27.4543 161.694L22.4346 157.831L22.9443 155.379L21.2315 156.906L19.3389 155.449L24.78 149.478Z" fill="#2F2E41"/>
<path d="M15.7736 139.939L15.7735 139.904L17.0376 137.725L15.7468 134.89L15.7081 127.604L15.9173 126.511C16.1988 125.04 16.1169 123.522 15.6788 122.09L15.6552 117.656C15.6098 116.545 17.3308 115.568 16.9295 114.642C13.1361 105.888 20.8031 99.2096 20.8549 99.156L21.0116 98.9931L21.8616 99.637L22.6708 99.638L33.5894 101.628L33.6682 101.775C34.0977 102.58 34.9265 105.357 34.9756 106.613C35.5198 107.243 41.7183 114.416 42.2693 114.914C45.9928 118.283 48.1246 123.859 49.064 126.883C49.2973 127.631 49.3443 128.424 49.201 129.193C49.0576 129.963 48.7283 130.686 48.2416 131.299L34.1455 146.739L30.3521 143.238L37.9794 129.339L37.4294 127.929C36.4425 127.747 35.5495 127.228 34.9025 126.461L33.358 124.628C32.9304 124.121 32.6587 123.502 32.5757 122.845L31.6391 122.732L28.2841 119.21L25.9565 140.289L25.3237 141.954L14.3033 154.91L9.63452 151.992L15.7736 139.939Z" fill="#2F2E41"/>
<path d="M14.0906 49.4275C13.8789 49.694 13.7282 50.0038 13.6491 50.3348C13.5701 50.6659 13.5645 51.0103 13.633 51.3438C13.7014 51.6772 13.8421 51.9916 14.0452 52.2648C14.2482 52.538 14.5087 52.7634 14.8083 52.925L11.3041 63.2993L14.1655 74.2933L18.7795 72.2073L15.9323 63.9149L18.0625 51.8445C18.3006 51.3233 18.3393 50.7327 18.1712 50.1848C18.003 49.6369 17.6397 49.1698 17.1501 48.8718C16.6606 48.5739 16.0787 48.4659 15.5148 48.5683C14.9509 48.6707 14.4442 48.9764 14.0906 49.4275Z" fill="#A0616A"/>
<path d="M18.3141 83.3518C18.3141 83.3518 17.2304 83.9337 16.4768 81.4389C15.8734 79.4417 11.7671 68.5975 11.6931 65.7017C11.2956 65.6192 10.9368 65.4069 10.6732 65.098C10.4097 64.7892 10.2563 64.4014 10.2374 63.9958L16.2013 63.1705C17.2478 64.0455 16.7233 64.7902 16.3214 65.1445L18.3526 68.5851L22.5982 77.8737L19.105 82.945L18.3141 83.3518Z" fill="#B0D7FF"/>
<path d="M21.3403 69.1616C21.9527 67.3146 23.0509 65.6665 24.5197 64.3902C25.9884 63.1138 27.7735 62.2562 29.6879 61.9073C29.6955 61.9048 29.7209 61.8946 29.754 61.8794C29.7743 61.8667 29.7997 61.854 29.8252 61.8413C29.7489 61.798 29.6752 61.7599 29.5989 61.7217L29.5979 61.7216L29.5971 61.721L29.5965 61.7202L29.5963 61.7192C29.5302 61.6582 29.4641 61.5971 29.3955 61.5387L29.2022 61.5463C29.2022 61.5463 22.4107 60.4708 21.3403 69.1616Z" fill="#FD6584"/>
<path d="M108.975 128.56C109.716 127.446 109.277 125.851 107.995 124.998C106.712 124.145 105.072 124.356 104.331 125.47C103.59 126.585 104.028 128.179 105.311 129.033C106.593 129.886 108.234 129.674 108.975 128.56Z" fill="#F2F2F2"/>
<path d="M93.9285 86.9776C94.6697 85.8635 94.231 84.2687 92.9486 83.4155C91.6662 82.5623 90.0257 82.7738 89.2845 83.8879C88.5433 85.002 88.982 86.5968 90.2644 87.45C91.5468 88.3032 93.1873 88.0917 93.9285 86.9776Z" fill="#F2F2F2"/>
<path d="M156.849 150.993C157.591 149.879 157.152 148.284 155.869 147.431C154.587 146.577 152.947 146.789 152.205 147.903C151.464 149.017 151.903 150.612 153.185 151.465C154.468 152.318 156.108 152.107 156.849 150.993Z" fill="#F2F2F2"/>
<path d="M29.6398 17.2175C30.381 16.1034 29.9423 14.5086 28.6599 13.6554C27.3775 12.8022 25.737 13.0137 24.9958 14.1278C24.2546 15.2419 24.6933 16.8367 25.9757 17.6899C27.2581 18.5431 28.8986 18.3316 29.6398 17.2175Z" fill="#F2F2F2"/>
<path d="M89.0042 4.0862C89.7454 2.9721 89.3067 1.3773 88.0243 0.52411C86.7419 -0.32908 85.1014 -0.117575 84.3602 0.996526C83.619 2.11063 84.0577 3.70544 85.3401 4.55863C86.6225 5.41182 88.263 5.2003 89.0042 4.0862Z" fill="#F2F2F2"/>
<path d="M60.9086 114.256C61.6499 113.142 61.2111 111.548 59.9287 110.694C58.6463 109.841 57.0059 110.053 56.2646 111.167C55.5234 112.281 55.9622 113.876 57.2446 114.729C58.527 115.582 60.1674 115.371 60.9086 114.256Z" fill="#E6E6E6"/>
<path d="M183.364 172.243H5.46407C5.37784 172.243 5.29524 172.208 5.23435 172.147C5.17347 172.086 5.13928 172.003 5.13928 171.917C5.13928 171.831 5.17347 171.748 5.23435 171.687C5.29524 171.626 5.37784 171.592 5.46407 171.591H183.364C183.451 171.591 183.534 171.626 183.595 171.687C183.656 171.748 183.69 171.831 183.69 171.917C183.69 172.004 183.656 172.086 183.595 172.147C183.534 172.209 183.451 172.243 183.364 172.243Z" fill="#CCCCCC"/>
<path d="M38.5756 64.0594C37.0791 64.0551 35.6367 63.4994 34.5242 62.4986C33.4116 61.4978 32.7069 60.1221 32.5448 58.6344L29.0717 26.3788C28.9011 24.7773 29.3727 23.1735 30.3831 21.9192C31.3935 20.665 32.8601 19.8628 34.4612 19.6886L137.584 8.58503C139.186 8.41432 140.79 8.88587 142.044 9.89623C143.298 10.9066 144.1 12.3732 144.275 13.9744L147.748 46.2299C147.918 47.8314 147.447 49.4353 146.436 50.6896C145.426 51.9438 143.959 52.7461 142.358 52.9203L39.235 64.0239C39.016 64.0475 38.7959 64.0594 38.5756 64.0594Z" fill="#E6E6E6"/>
<path d="M136.448 10.0824C136.255 10.0825 136.061 10.0929 135.868 10.1137L36.4634 20.8169C35.7684 20.8918 35.0948 21.1028 34.4813 21.4379C33.8678 21.7731 33.3263 22.2258 32.8877 22.7702C32.4492 23.3146 32.1221 23.94 31.9253 24.6108C31.7284 25.2816 31.6657 25.9846 31.7405 26.6797L33.4965 42.9885C33.7804 45.625 34.5807 48.1798 35.8519 50.507C37.1231 52.8342 38.8403 54.8882 40.9053 56.5517C42.9703 58.2153 45.3428 59.4558 47.8872 60.2025C50.4317 60.9492 53.0983 61.1874 55.7348 60.9035L125.633 53.3773C128.262 53.0943 130.809 52.2963 133.129 51.029C135.449 49.7616 137.497 48.0497 139.155 45.991C140.814 43.9322 142.05 41.567 142.795 39.0303C143.539 36.4935 143.777 33.835 143.494 31.2065L141.731 14.8366C141.591 13.5327 140.974 12.3265 139.999 11.4492C139.024 10.5719 137.76 10.0852 136.448 10.0824Z" fill="white"/>
<path d="M115.515 27.0552L59.9564 33.0374C59.7976 33.0547 59.6369 33.0405 59.4835 32.9957C59.3301 32.9509 59.1871 32.8762 59.0625 32.7761C58.938 32.6759 58.8345 32.5522 58.7578 32.4119C58.6812 32.2717 58.6329 32.1178 58.6158 31.9589C58.5987 31.8 58.6131 31.6393 58.6581 31.486C58.7032 31.3327 58.778 31.1897 58.8783 31.0654C58.9787 30.941 59.1025 30.8376 59.2429 30.7611C59.3832 30.6847 59.5372 30.6366 59.6961 30.6197L115.255 24.6375C115.414 24.6202 115.574 24.6343 115.728 24.6792C115.881 24.724 116.024 24.7987 116.149 24.8988C116.273 24.999 116.377 25.1227 116.453 25.263C116.53 25.4032 116.578 25.5571 116.595 25.716C116.613 25.8749 116.598 26.0356 116.553 26.1889C116.508 26.3422 116.433 26.4852 116.333 26.6095C116.233 26.7339 116.109 26.8373 115.968 26.9138C115.828 26.9902 115.674 27.0383 115.515 27.0552Z" fill="#B0D7FF"/>
<path d="M116.314 34.4752L60.7554 40.4574C60.4348 40.4919 60.1136 40.3977 59.8625 40.1954C59.6114 39.9931 59.4509 39.6993 59.4164 39.3787C59.3819 39.0581 59.4761 38.7369 59.6784 38.4858C59.8807 38.2347 60.1745 38.0742 60.4951 38.0397L116.054 32.0575C116.374 32.023 116.696 32.1172 116.947 32.3195C117.198 32.5218 117.358 32.8156 117.393 33.1362C117.427 33.4568 117.333 33.778 117.131 34.0291C116.928 34.2802 116.635 34.4407 116.314 34.4752Z" fill="#B0D7FF"/>
<path d="M68.0289 47.18L61.5543 47.8772C61.2337 47.9117 60.9125 47.8174 60.6614 47.6151C60.4103 47.4128 60.2498 47.1191 60.2153 46.7985C60.1808 46.4779 60.275 46.1567 60.4773 45.9056C60.6796 45.6545 60.9734 45.494 61.294 45.4595L67.7685 44.7624C67.9274 44.745 68.0881 44.7592 68.2415 44.804C68.3949 44.8489 68.5379 44.9235 68.6624 45.0237C68.7869 45.1239 68.8905 45.2476 68.9671 45.3878C69.0438 45.528 69.092 45.682 69.1092 45.8408C69.1263 45.9997 69.1119 46.1604 69.0668 46.3138C69.0218 46.4671 68.9469 46.61 68.8466 46.7344C68.7463 46.8588 68.6224 46.9621 68.4821 47.0386C68.3418 47.1151 68.1878 47.1631 68.0289 47.18Z" fill="#B0D7FF"/>
<path d="M36.3895 27.7398C37.5982 27.7398 38.5781 26.76 38.5781 25.5513C38.5781 24.3425 37.5982 23.3627 36.3895 23.3627C35.1808 23.3627 34.201 24.3425 34.201 25.5513C34.201 26.76 35.1808 27.7398 36.3895 27.7398Z" fill="#3F3D56"/>
<path d="M134.327 16.7971C135.536 16.7971 136.516 15.8172 136.516 14.6085C136.516 13.3998 135.536 12.42 134.327 12.42C133.119 12.42 132.139 13.3998 132.139 14.6085C132.139 15.8172 133.119 16.7971 134.327 16.7971Z" fill="#3F3D56"/>
<path d="M104.739 61.7271C104.538 61.5505 104.379 61.3313 104.273 61.0854C104.167 60.8396 104.117 60.5732 104.127 60.3057C104.237 57.1269 103.714 53.958 102.587 50.9834C102.492 50.7334 102.453 50.4652 102.474 50.1983C102.495 49.9315 102.575 49.6727 102.709 49.4408C102.837 49.2179 103.013 49.0258 103.223 48.8779C103.433 48.73 103.673 48.6299 103.926 48.5846C106.47 47.0495 109.078 46.6186 111.679 47.304C112.098 47.2422 112.526 47.332 112.885 47.5572C113.244 47.7824 113.511 48.1282 113.638 48.5326C114.691 51.9511 115.277 55.4963 115.379 59.0719C115.389 59.5008 115.244 59.9189 114.97 60.2493C114.697 60.5798 114.313 60.8004 113.89 60.8706L106.193 62.1422C105.935 62.1853 105.671 62.1705 105.419 62.0987C105.168 62.0269 104.935 61.9 104.739 61.7271Z" fill="#B0D7FF"/>
<path d="M105.423 52.4653L111.9 51.3951C111.954 51.3864 112.005 51.3673 112.051 51.3389C112.096 51.3105 112.136 51.2733 112.168 51.2294C112.199 51.1856 112.222 51.136 112.234 51.0834C112.246 51.0309 112.248 50.9764 112.239 50.9232C112.23 50.8699 112.211 50.8189 112.183 50.7731C112.154 50.7273 112.117 50.6876 112.073 50.6562C112.029 50.6248 111.979 50.6024 111.927 50.5903C111.874 50.5781 111.82 50.5764 111.767 50.5854L105.289 51.6556C105.182 51.6735 105.086 51.7333 105.023 51.8217C104.96 51.9101 104.934 52.0199 104.952 52.1272C104.969 52.2344 105.029 52.3302 105.117 52.3936C105.205 52.457 105.315 52.4828 105.423 52.4653Z" fill="white"/>
<path d="M105.958 55.7042L112.435 54.634C112.543 54.6162 112.639 54.5566 112.702 54.4681C112.766 54.3796 112.791 54.2696 112.773 54.1622C112.756 54.0548 112.696 53.9589 112.608 53.8955C112.519 53.8322 112.409 53.8065 112.302 53.8242L105.824 54.8945C105.771 54.9031 105.72 54.9222 105.674 54.9506C105.628 54.9791 105.588 55.0163 105.556 55.0601C105.525 55.1039 105.502 55.1535 105.49 55.2061C105.478 55.2587 105.476 55.3131 105.485 55.3664C105.494 55.4196 105.513 55.4706 105.541 55.5164C105.57 55.5622 105.607 55.6019 105.651 55.6333C105.695 55.6647 105.745 55.6871 105.797 55.6993C105.85 55.7114 105.904 55.7131 105.958 55.7042Z" fill="white"/>
<path d="M106.493 58.9431L112.971 57.8729C113.078 57.8552 113.174 57.7955 113.237 57.707C113.301 57.6186 113.326 57.5085 113.309 57.4012C113.291 57.2938 113.231 57.1979 113.143 57.1345C113.054 57.0711 112.944 57.0455 112.837 57.0632L106.359 58.1334C106.306 58.1422 106.255 58.1613 106.209 58.1898C106.163 58.2183 106.124 58.2555 106.092 58.2993C106.061 58.3431 106.038 58.3926 106.026 58.4451C106.014 58.4976 106.012 58.552 106.021 58.6051C106.03 58.6583 106.049 58.7092 106.077 58.755C106.106 58.8008 106.143 58.8405 106.187 58.8718C106.231 58.9032 106.28 58.9257 106.333 58.9379C106.385 58.9501 106.44 58.9519 106.493 58.9431Z" fill="white"/>
</g>
<defs>
<clipPath id="clip0_40_84">
<rect width="200" height="172.243" fill="white"/>
</clipPath>
</defs>
</svg>
