<svg width="450" height="539" viewBox="0 0 450 539" fill="none" xmlns="http://www.w3.org/2000/svg">
<g clip-path="url(#clip0_143_949)">
<path d="M360.919 185.982H316.524V171.364C316.524 146.862 336.417 126.969 360.919 126.969L360.919 185.982Z" fill="#2F2E41"/>
<path d="M315.914 179.288L311.197 178.002C311.197 178.002 294.472 175.858 291.899 182.719C289.326 189.58 290.184 229.892 290.184 229.892C290.184 229.892 285.758 279.367 302.98 279.931C320.203 280.495 316.772 239.326 316.772 239.326L315.914 179.288Z" fill="#6C63FF"/>
<path d="M0 537.026C0 537.592 0.454597 538.046 1.02069 538.046H448.979C449.545 538.046 450 537.592 450 537.026C450 536.459 449.545 536.005 448.979 536.005H1.02069C0.454597 536.005 0 536.459 0 537.026Z" fill="#3F3D56"/>
<path d="M291.618 1H115.22C95.2162 1 79 17.2162 79 37.2199V500.739C79 520.743 95.2161 536.959 115.22 536.959H291.618C311.622 536.959 327.838 520.743 327.838 500.739V37.2199C327.838 17.2162 311.622 1 291.618 1Z" fill="white"/>
<path d="M291.644 537.674H115.246C94.8013 537.674 78.1682 521.041 78.1682 500.597V37.0776C78.1682 16.6331 94.8013 0 115.246 0H291.644C312.089 0 328.722 16.6331 328.722 37.0776V500.597C328.722 521.041 312.089 537.674 291.644 537.674ZM115.246 1.71536C95.7469 1.71536 79.8836 17.5787 79.8836 37.0776V500.597C79.8836 520.096 95.7469 535.959 115.246 535.959H291.644C311.143 535.959 327.007 520.096 327.007 500.597V37.0776C327.007 17.5787 311.143 1.71536 291.644 1.71536H115.246Z" fill="#3F3D56"/>
<path d="M64.4493 81.1079C62.9007 81.1079 61.6414 82.3673 61.6414 83.9159V106.38C61.6414 107.928 62.9007 109.188 64.4493 109.188C65.998 109.188 67.2573 107.928 67.2573 106.38V83.9159C67.2573 82.3673 65.998 81.1079 64.4493 81.1079Z" fill="#3F3D56"/>
<path d="M304.422 75.0141H233.519C230.512 75.0141 228.065 72.5673 228.065 69.56C228.065 66.5527 230.512 64.106 233.519 64.106H304.422C307.429 64.106 309.876 66.5527 309.876 69.56C309.876 72.5673 307.429 75.0141 304.422 75.0141Z" fill="#E6E6E6"/>
<path d="M237.906 117.904H168.985C167.247 117.904 165.833 116.49 165.833 114.753C165.833 113.015 167.247 111.602 168.985 111.602H237.906C239.643 111.602 241.056 113.015 241.056 114.753C241.056 116.49 239.643 117.904 237.906 117.904Z" fill="#B0D7FF"/>
<path d="M67.1756 133.457C97.9173 133.457 122.838 109.061 122.838 78.9669C122.838 48.873 97.9173 24.4771 67.1756 24.4771C36.434 24.4771 11.5129 48.873 11.5129 78.9669C11.5129 109.061 36.434 133.457 67.1756 133.457Z" fill="#B0D7FF"/>
<path d="M86.0675 51.4817C78.657 64.9753 71.2466 78.4691 63.8361 91.9627C59.1132 83.6179 54.416 75.2583 49.6814 66.92C48.0463 64.0402 43.5987 66.6304 45.238 69.5173C50.7264 79.1833 56.1579 88.8814 61.6463 98.5474C62.5847 100.2 65.1611 100.239 66.0898 98.5474C74.2302 83.7246 82.3706 68.9018 90.511 54.0791C92.1061 51.1745 87.6638 48.5749 86.0675 51.4817Z" fill="white"/>
<path d="M140.493 12.5718H101.144C100.998 12.5718 100.878 12.6909 100.878 12.8378V17.4186C100.878 17.5655 100.998 17.6847 101.144 17.6847H140.493C140.64 17.6847 140.759 17.5655 140.759 17.4186V12.8378C140.759 12.6909 140.64 12.5718 140.493 12.5718Z" fill="#E6E6E6"/>
<path d="M273.031 17.6845C275.29 17.6845 277.122 15.8532 277.122 13.5942C277.122 11.3352 275.29 9.50391 273.031 9.50391C270.772 9.50391 268.941 11.3352 268.941 13.5942C268.941 15.8532 270.772 17.6845 273.031 17.6845Z" fill="#E6E6E6"/>
<path d="M284.28 17.6845C286.539 17.6845 288.37 15.8532 288.37 13.5942C288.37 11.3352 286.539 9.50391 284.28 9.50391C282.021 9.50391 280.189 11.3352 280.189 13.5942C280.189 15.8532 282.021 17.6845 284.28 17.6845Z" fill="#E6E6E6"/>
<path d="M295.528 17.6845C297.787 17.6845 299.618 15.8532 299.618 13.5942C299.618 11.3352 297.787 9.50391 295.528 9.50391C293.269 9.50391 291.438 11.3352 291.438 13.5942C291.438 15.8532 293.269 17.6845 295.528 17.6845Z" fill="#E6E6E6"/>
<path d="M114.816 134.773C114.816 135.339 115.271 135.793 115.837 135.793H291.053C291.619 135.793 292.074 135.339 292.074 134.773C292.074 134.207 291.619 133.752 291.053 133.752H115.837C115.271 133.752 114.816 134.207 114.816 134.773Z" fill="#3F3D56"/>
<path d="M274.25 214.992H169.1C167.363 214.992 165.949 213.578 165.949 211.841C165.949 210.103 167.363 208.69 169.1 208.69H274.25C275.988 208.69 277.401 210.103 277.401 211.841C277.401 213.578 275.988 214.992 274.25 214.992Z" fill="#B0D7FF"/>
<path d="M274.25 260.449H169.1C167.363 260.449 165.949 259.035 165.949 257.298C165.949 255.56 167.363 254.147 169.1 254.147H274.25C275.988 254.147 277.401 255.56 277.401 257.298C277.401 259.035 275.988 260.449 274.25 260.449Z" fill="#B0D7FF"/>
<path d="M274.25 305.907H169.1C167.363 305.907 165.949 304.493 165.949 302.755C165.949 301.018 167.363 299.604 169.1 299.604H274.25C275.988 299.604 277.401 301.018 277.401 302.755C277.401 304.493 275.988 305.907 274.25 305.907Z" fill="#B0D7FF"/>
<path d="M137.208 219.171C141.471 219.171 144.927 215.715 144.927 211.452C144.927 207.188 141.471 203.732 137.208 203.732C132.945 203.732 129.489 207.188 129.489 211.452C129.489 215.715 132.945 219.171 137.208 219.171Z" fill="#B0D7FF"/>
<path d="M136.35 224.317V222.601C142.735 222.601 147.929 217.407 147.929 211.023C147.929 204.638 142.735 199.444 136.35 199.444V197.729C143.681 197.729 149.644 203.692 149.644 211.023C149.644 218.353 143.681 224.317 136.35 224.317Z" fill="#3F3D56"/>
<path d="M137.208 264.628C141.471 264.628 144.927 261.172 144.927 256.909C144.927 252.645 141.471 249.189 137.208 249.189C132.945 249.189 129.489 252.645 129.489 256.909C129.489 261.172 132.945 264.628 137.208 264.628Z" fill="#B0D7FF"/>
<path d="M136.35 269.774V268.058C142.735 268.058 147.929 262.864 147.929 256.48C147.929 250.095 142.735 244.901 136.35 244.901V243.186C143.681 243.186 149.644 249.149 149.644 256.48C149.644 263.81 143.681 269.774 136.35 269.774Z" fill="#3F3D56"/>
<path d="M137.208 310.085C141.471 310.085 144.927 306.629 144.927 302.366C144.927 298.102 141.471 294.646 137.208 294.646C132.945 294.646 129.489 298.102 129.489 302.366C129.489 306.629 132.945 310.085 137.208 310.085Z" fill="#B0D7FF"/>
<path d="M136.35 315.231V313.515C142.735 313.515 147.929 308.322 147.929 301.937C147.929 295.552 142.735 290.358 136.35 290.358V288.643C143.681 288.643 149.644 294.606 149.644 301.937C149.644 309.267 143.681 315.231 136.35 315.231Z" fill="#3F3D56"/>
</g>
<defs>
<clipPath id="clip0_143_949">
<rect width="450" height="538.267" fill="white"/>
</clipPath>
</defs>
</svg>
