<svg width="300" height="221" viewBox="0 0 300 221" fill="none" xmlns="http://www.w3.org/2000/svg">
<g clip-path="url(#clip0_14_884)">
<path d="M216.1 76.3452H112.733C111.09 76.3434 109.514 75.6897 108.352 74.5277C107.19 73.3657 106.537 71.7902 106.535 70.1469V9.1714C106.536 7.94236 107.025 6.76404 107.894 5.89496C108.763 5.02589 109.941 4.53702 111.17 4.5356H217.588C218.837 4.53703 220.034 5.0337 220.917 5.91666C221.8 6.79961 222.297 7.99674 222.298 9.24542V70.1469C222.296 71.7902 221.643 73.3657 220.481 74.5277C219.319 75.6897 217.743 76.3434 216.1 76.3452Z" fill="white"/>
<path d="M216.1 76.3452H112.733C111.09 76.3434 109.514 75.6897 108.352 74.5277C107.19 73.3657 106.537 71.7902 106.535 70.1469V9.1714C106.536 7.94236 107.025 6.76404 107.894 5.89496C108.763 5.02589 109.941 4.53702 111.17 4.5356H217.588C218.837 4.53703 220.034 5.0337 220.917 5.91666C221.8 6.79961 222.297 7.99674 222.298 9.24542V70.1469C222.296 71.7902 221.643 73.3657 220.481 74.5277C219.319 75.6897 217.743 76.3434 216.1 76.3452ZM111.17 5.24398C110.129 5.24517 109.131 5.65933 108.395 6.39561C107.658 7.1319 107.244 8.13016 107.243 9.1714V70.1469C107.245 71.6024 107.824 72.9979 108.853 74.0271C109.882 75.0563 111.278 75.6352 112.733 75.6369H216.1C217.555 75.6352 218.951 75.0563 219.98 74.0271C221.009 72.9979 221.588 71.6024 221.59 70.1469V9.24542C221.589 8.18455 221.167 7.16747 220.416 6.41731C219.666 5.66716 218.649 5.24519 217.588 5.24398H111.17Z" fill="#3F3D56"/>
<path d="M118.4 70.1469H210.433C211.936 70.1469 213.377 69.5499 214.44 68.4871C215.503 67.4243 216.1 65.9829 216.1 64.4799V20.0118C216.1 18.5088 215.503 17.0674 214.44 16.0046C213.377 14.9418 211.936 14.3448 210.433 14.3448H118.4C116.897 14.3448 115.456 14.9418 114.393 16.0046C113.33 17.0674 112.733 18.5088 112.733 20.0118V64.4799C112.733 65.9829 113.33 67.4243 114.393 68.4871C115.456 69.5499 116.897 70.1469 118.4 70.1469Z" fill="#F2F2F2"/>
<path d="M222.453 8.83704H106.278V5.86169C106.289 4.29859 106.92 2.80362 108.031 1.70471C109.143 0.605803 110.645 -0.00730316 112.208 -0.000112808H216.523C218.086 -0.00731066 219.588 0.605791 220.7 1.7047C221.812 2.80361 222.442 4.29859 222.453 5.86169V8.83704Z" fill="#B0D7FF"/>
<path d="M117.466 5.94455C118.304 5.94455 118.984 5.2653 118.984 4.4274C118.984 3.5895 118.304 2.91025 117.466 2.91025C116.629 2.91025 115.949 3.5895 115.949 4.4274C115.949 5.2653 116.629 5.94455 117.466 5.94455Z" fill="white"/>
<path d="M123.225 5.94455C124.063 5.94455 124.742 5.2653 124.742 4.4274C124.742 3.5895 124.063 2.91025 123.225 2.91025C122.387 2.91025 121.708 3.5895 121.708 4.4274C121.708 5.2653 122.387 5.94455 123.225 5.94455Z" fill="white"/>
<path d="M128.984 5.94455C129.822 5.94455 130.501 5.2653 130.501 4.4274C130.501 3.5895 129.822 2.91025 128.984 2.91025C128.146 2.91025 127.467 3.5895 127.467 4.4274C127.467 5.2653 128.146 5.94455 128.984 5.94455Z" fill="white"/>
<path d="M134.781 53.9342C132.47 53.9342 130.21 53.2487 128.288 51.9643C126.366 50.68 124.868 48.8546 123.983 46.7188C123.098 44.583 122.867 42.2329 123.318 39.9656C123.769 37.6983 124.882 35.6156 126.517 33.981C128.151 32.3463 130.234 31.2331 132.501 30.7821C134.769 30.3311 137.119 30.5626 139.254 31.4472C141.39 32.3319 143.216 33.83 144.5 35.7522C145.784 37.6743 146.47 39.9341 146.47 42.2459C146.466 45.3447 145.234 48.3157 143.043 50.5069C140.851 52.6981 137.88 53.9307 134.781 53.9342Z" fill="#B0D7FF"/>
<path d="M202.906 51.809H157.67C156.939 51.8186 156.232 51.5522 155.689 51.0628C155.146 50.5735 154.808 49.8973 154.743 49.1695C154.716 48.7821 154.77 48.3934 154.9 48.0275C155.031 47.6617 155.234 47.3264 155.499 47.0426C155.765 46.7588 156.085 46.5324 156.441 46.3774C156.797 46.2225 157.181 46.1423 157.57 46.1419H202.794C203.528 46.1311 204.239 46.3985 204.785 46.8902C205.33 47.382 205.669 48.0619 205.734 48.7934C205.758 49.1799 205.703 49.5674 205.572 49.9319C205.441 50.2964 205.237 50.6302 204.972 50.9127C204.707 51.1952 204.387 51.4205 204.032 51.5747C203.677 51.7288 203.293 51.8086 202.906 51.809Z" fill="#3F3D56"/>
<path d="M179.175 39.7665H157.67C156.939 39.7761 156.232 39.5096 155.689 39.0203C155.146 38.5309 154.808 37.8548 154.743 37.127C154.716 36.7396 154.77 36.3509 154.9 35.985C155.031 35.6191 155.234 35.2839 155.499 35.0001C155.765 34.7162 156.085 34.4898 156.441 34.3349C156.797 34.18 157.181 34.0998 157.57 34.0994H179.063C179.797 34.0886 180.509 34.3559 181.054 34.8477C181.599 35.3395 181.938 36.0194 182.003 36.7508C182.028 37.1374 181.973 37.5249 181.842 37.8893C181.711 38.2538 181.506 38.5876 181.241 38.8702C180.976 39.1527 180.656 39.378 180.301 39.5321C179.946 39.6863 179.563 39.766 179.175 39.7665Z" fill="#3F3D56"/>
<path d="M269.219 160.237C269.393 159.746 269.458 159.223 269.408 158.705C269.358 158.187 269.195 157.686 268.931 157.237C268.666 156.788 268.307 156.403 267.878 156.109C267.448 155.814 266.959 155.617 266.446 155.532L264.31 143.057L259.509 147.552L262.273 158.71C262.187 159.582 262.424 160.456 262.939 161.165C263.454 161.875 264.212 162.37 265.068 162.559C265.924 162.747 266.82 162.614 267.585 162.186C268.35 161.759 268.931 161.065 269.219 160.237Z" fill="#FFB8B8"/>
<path d="M266.029 154.268L261.316 155.505C261.091 155.563 260.853 155.531 260.652 155.416C260.451 155.301 260.303 155.112 260.239 154.89L251.768 124.879L249.209 117.223C248.963 116.485 248.907 115.697 249.047 114.932C249.187 114.167 249.518 113.449 250.009 112.846C250.501 112.244 251.137 111.775 251.858 111.484C252.58 111.193 253.363 111.09 254.135 111.183C255.029 111.29 255.872 111.657 256.559 112.238C257.247 112.819 257.749 113.589 258.004 114.452L264.773 137.331L266.684 153.307C266.704 153.484 266.671 153.664 266.588 153.822C266.505 153.981 266.376 154.11 266.218 154.194C266.158 154.226 266.095 154.251 266.029 154.268Z" fill="#CCCCCC"/>
<path d="M248.803 106.121C253.607 106.121 257.502 102.226 257.502 97.4213C257.502 92.6168 253.607 88.722 248.803 88.722C243.998 88.722 240.104 92.6168 240.104 97.4213C240.104 102.226 243.998 106.121 248.803 106.121Z" fill="#FFB8B8"/>
<path d="M223.189 216.429L219.027 215.19L221.823 198.548L227.966 200.375L223.189 216.429Z" fill="#FFB8B8"/>
<path d="M223.05 220.779L209.63 216.786L209.681 216.616C209.885 215.93 210.222 215.291 210.673 214.736C211.124 214.18 211.68 213.719 212.309 213.378C212.939 213.037 213.629 212.824 214.341 212.75C215.053 212.676 215.772 212.743 216.458 212.947L224.655 215.386L223.05 220.779Z" fill="#2F2E41"/>
<path d="M268.787 216.215H264.445L262.379 199.466L266.662 199.467L268.787 216.215Z" fill="#FFB8B8"/>
<path d="M269.894 220.425L255.893 220.424V220.247C255.893 219.531 256.034 218.823 256.308 218.162C256.582 217.5 256.983 216.9 257.489 216.394C257.995 215.888 258.596 215.486 259.257 215.212C259.918 214.938 260.627 214.797 261.343 214.797L269.895 214.798L269.894 220.425Z" fill="#2F2E41"/>
<path d="M224.79 211.505H220.43C220.196 211.505 219.966 211.453 219.754 211.354C219.542 211.255 219.355 211.11 219.206 210.931C219.056 210.751 218.948 210.541 218.888 210.315C218.829 210.089 218.82 209.852 218.862 209.623C216.082 208.386 231.052 136.593 234.589 137.985L234.706 137.817L252.517 139.271C260.495 155.238 265.545 181.658 270.27 209.239C270.328 209.468 270.335 209.707 270.289 209.939C270.244 210.171 270.147 210.389 270.007 210.579C269.866 210.769 269.685 210.925 269.477 211.037C269.269 211.148 269.039 211.212 268.803 211.223L263.904 211.461C263.572 211.478 263.244 211.391 262.964 211.212C262.685 211.032 262.469 210.77 262.347 210.461L243.579 163.542C243.541 163.439 243.472 163.352 243.381 163.291C243.29 163.231 243.182 163.202 243.073 163.208C242.964 163.209 242.859 163.244 242.771 163.308C242.683 163.372 242.618 163.462 242.583 163.565L226.296 210.434C226.187 210.747 225.983 211.018 225.714 211.209C225.444 211.401 225.121 211.504 224.79 211.505Z" fill="#2F2E41"/>
<path d="M252.89 140.676L252.754 140.666L233.79 139.235L237.117 118.079C237.482 115.717 238.601 113.537 240.306 111.864C242.012 110.19 244.213 109.113 246.581 108.794C246.727 108.773 246.874 108.753 247.021 108.734C248.882 108.489 250.774 108.727 252.516 109.424C254.258 110.121 255.791 111.254 256.969 112.715C258.175 114.184 258.983 115.939 259.315 117.81C259.647 119.681 259.492 121.606 258.866 123.401L252.89 140.676Z" fill="#CCCCCC"/>
<path d="M265.695 107.372C259.713 110.109 251.597 109.619 242.319 107.372C243.603 103.855 244.603 100.458 243.468 97.9646C243.01 97.0232 242.751 95.9972 242.708 94.951C242.665 93.9049 242.839 92.8612 243.219 91.8855C244.109 89.758 245.607 87.941 247.527 86.6632C249.446 85.3854 251.701 84.7037 254.007 84.7039C257.107 84.7039 260.08 85.9353 262.272 88.1273C264.464 90.3193 265.695 93.2923 265.695 96.3922V107.372Z" fill="#2F2E41"/>
<path d="M245.506 85.4992H252.944V94.6461H237.36V93.6456C237.36 91.4851 238.218 89.413 239.746 87.8852C241.274 86.3575 243.346 85.4992 245.506 85.4992Z" fill="#2F2E41"/>
<path d="M233.38 162.205C233.764 161.853 234.066 161.421 234.265 160.94C234.464 160.458 234.555 159.939 234.531 159.419C234.508 158.899 234.371 158.39 234.13 157.929C233.888 157.468 233.549 157.065 233.135 156.749L237.095 144.727L230.747 146.448L227.96 157.6C227.475 158.331 227.275 159.214 227.398 160.082C227.52 160.95 227.957 161.743 228.625 162.31C229.293 162.878 230.146 163.18 231.023 163.161C231.899 163.141 232.738 162.801 233.38 162.205Z" fill="#FFB8B8"/>
<path d="M233.359 155.437L228.616 154.321C228.39 154.267 228.195 154.127 228.071 153.931C227.948 153.735 227.905 153.499 227.953 153.272L234.534 122.791L235.861 114.829C235.989 114.062 236.309 113.339 236.791 112.729C237.273 112.118 237.902 111.64 238.619 111.338C239.336 111.036 240.117 110.92 240.891 111.001C241.664 111.082 242.405 111.357 243.043 111.802C243.782 112.315 244.355 113.034 244.69 113.87C245.025 114.705 245.108 115.621 244.929 116.503L240.187 139.886L234.388 154.894C234.323 155.061 234.209 155.204 234.062 155.305C233.914 155.406 233.74 155.46 233.561 155.46C233.493 155.46 233.425 155.452 233.359 155.437Z" fill="#CCCCCC"/>
<path d="M299.646 220.9H164.699C164.605 220.9 164.515 220.863 164.448 220.796C164.382 220.73 164.345 220.64 164.345 220.546C164.345 220.452 164.382 220.362 164.448 220.295C164.515 220.229 164.605 220.192 164.699 220.192H299.646C299.74 220.192 299.83 220.229 299.896 220.295C299.963 220.362 300 220.452 300 220.546C300 220.64 299.963 220.73 299.896 220.796C299.83 220.863 299.74 220.9 299.646 220.9Z" fill="#CCCCCC"/>
<path d="M47.8279 136.344C47.638 136.393 47.4523 136.456 47.2724 136.534L32.5118 127.012L32.7154 122.749L26.3228 121.601L25.229 129.112C25.1407 129.719 25.2515 130.338 25.5449 130.876C25.8384 131.415 26.2985 131.844 26.8563 132.098L45.0357 140.397C45.1262 141.147 45.4427 141.851 45.9432 142.416C46.4436 142.981 47.1044 143.381 47.8375 143.562C48.5705 143.742 49.3413 143.695 50.0471 143.427C50.7529 143.159 51.3603 142.683 51.7887 142.061C52.217 141.439 52.4459 140.702 52.4449 139.947C52.4439 139.192 52.213 138.455 51.7831 137.834C51.3531 137.214 50.7444 136.739 50.0378 136.472C49.3313 136.206 48.5605 136.161 47.8279 136.344Z" fill="#FFB8B8"/>
<path d="M31.9096 126.749L23.9934 125.288C23.7682 125.247 23.5546 125.157 23.3671 125.025C23.1796 124.894 23.0227 124.723 22.9071 124.526C22.7914 124.328 22.7197 124.108 22.6969 123.88C22.6741 123.652 22.7006 123.422 22.7747 123.205L25.3725 115.611C25.5917 114.46 26.2584 113.443 27.2266 112.782C28.1948 112.122 29.3854 111.872 30.5373 112.088C31.6892 112.305 32.7084 112.969 33.3713 113.935C34.0342 114.902 34.2868 116.092 34.0736 117.244L33.7918 125.239C33.7836 125.468 33.7263 125.692 33.6235 125.897C33.5208 126.102 33.3752 126.282 33.1966 126.425C33.018 126.568 32.8106 126.672 32.5885 126.728C32.3664 126.784 32.1348 126.791 31.9096 126.749Z" fill="#3F3D56"/>
<path d="M186.068 104.732H51.1207C49.9583 104.731 48.8157 105.032 47.8053 105.607C47.5633 105.744 47.3303 105.897 47.1077 106.064C46.2647 106.689 45.5798 107.503 45.1081 108.44C44.6363 109.377 44.3907 110.412 44.3911 111.462V181.592C44.3926 183.376 45.1022 185.087 46.3639 186.349C47.6256 187.61 49.3364 188.32 51.1207 188.321H186.068C187.852 188.32 189.563 187.61 190.824 186.349C192.086 185.087 192.796 183.376 192.797 181.592V111.462C192.796 109.677 192.086 107.967 190.824 106.705C189.563 105.443 187.852 104.734 186.068 104.732Z" fill="white"/>
<path d="M186.068 104.732H51.1207C49.9583 104.731 48.8157 105.032 47.8053 105.607C47.5633 105.744 47.3303 105.897 47.1077 106.064C46.2647 106.689 45.5798 107.503 45.1081 108.44C44.6363 109.377 44.3907 110.412 44.3911 111.462V181.592C44.3926 183.376 45.1022 185.087 46.3639 186.349C47.6256 187.61 49.3364 188.32 51.1207 188.321H186.068C187.852 188.32 189.563 187.61 190.824 186.349C192.086 185.087 192.796 183.376 192.797 181.592V111.462C192.796 109.677 192.086 107.967 190.824 106.705C189.563 105.443 187.852 104.734 186.068 104.732ZM192.089 181.592C192.087 183.188 191.451 184.718 190.323 185.847C189.194 186.976 187.664 187.611 186.068 187.613H51.1207C49.5244 187.611 47.9942 186.976 46.8655 185.847C45.7368 184.718 45.1017 183.188 45.0994 181.592V111.462C45.1045 110.189 45.5103 108.951 46.2593 107.922C47.0082 106.893 48.0623 106.127 49.2717 105.731C49.3214 105.717 49.3674 105.699 49.417 105.685C49.9703 105.522 50.544 105.44 51.1207 105.441H186.068C187.664 105.443 189.194 106.078 190.323 107.207C191.451 108.335 192.087 109.866 192.089 111.462V181.592Z" fill="#3F3D56"/>
<path d="M118.447 146.497C117.909 146.497 117.38 146.36 116.91 146.101L46.4104 107.298C46.3281 107.253 46.2672 107.177 46.2411 107.086C46.2149 106.996 46.2256 106.899 46.2709 106.817C46.3162 106.735 46.3924 106.674 46.4826 106.648C46.5728 106.621 46.6697 106.632 46.752 106.678L117.251 145.48C117.611 145.679 118.014 145.785 118.425 145.788C118.836 145.792 119.241 145.693 119.604 145.501L191.264 107.698C191.305 107.676 191.35 107.663 191.396 107.659C191.442 107.654 191.489 107.659 191.534 107.673C191.578 107.686 191.62 107.709 191.655 107.739C191.691 107.768 191.721 107.805 191.743 107.846C191.764 107.887 191.778 107.932 191.782 107.979C191.786 108.025 191.781 108.072 191.768 108.116C191.754 108.161 191.731 108.202 191.702 108.238C191.672 108.273 191.635 108.303 191.594 108.325L119.934 146.127C119.476 146.37 118.965 146.497 118.447 146.497Z" fill="#3F3D56"/>
<path d="M66.9058 170.612H56.9884C56.2369 170.612 55.5162 170.313 54.9848 169.782C54.4534 169.25 54.1549 168.53 54.1549 167.778C54.1549 167.027 54.4534 166.306 54.9848 165.775C55.5162 165.243 56.2369 164.945 56.9884 164.945H66.9058C67.6573 164.945 68.378 165.243 68.9094 165.775C69.4408 166.306 69.7393 167.027 69.7393 167.778C69.7393 168.53 69.4408 169.25 68.9094 169.782C68.378 170.313 67.6573 170.612 66.9058 170.612Z" fill="#3F3D56"/>
<path d="M78.5941 180.175H56.9884C56.2369 180.175 55.5162 179.876 54.9848 179.345C54.4534 178.814 54.1549 178.093 54.1549 177.341C54.1549 176.59 54.4534 175.869 54.9848 175.338C55.5162 174.806 56.2369 174.508 56.9884 174.508H78.5941C79.3456 174.508 80.0663 174.806 80.5977 175.338C81.1291 175.869 81.4276 176.59 81.4276 177.341C81.4276 178.093 81.1291 178.814 80.5977 179.345C80.0663 179.876 79.3456 180.175 78.5941 180.175Z" fill="#3F3D56"/>
<path d="M118.418 157.861C124.678 157.861 129.752 152.786 129.752 146.527C129.752 140.267 124.678 135.193 118.418 135.193C112.159 135.193 107.084 140.267 107.084 146.527C107.084 152.786 112.159 157.861 118.418 157.861Z" fill="#B0D7FF"/>
<path d="M67.0402 111.4L116.99 132.24C117.162 132.312 117.355 132.313 117.528 132.243L169.025 111.403C169.177 111.341 169.303 111.229 169.382 111.084C169.46 110.94 169.486 110.772 169.454 110.611C169.423 110.45 169.336 110.304 169.209 110.2C169.083 110.095 168.923 110.038 168.759 110.038H67.3129C67.1492 110.038 66.9905 110.095 66.8639 110.198C66.7373 110.302 66.6505 110.447 66.6183 110.607C66.5862 110.768 66.6106 110.934 66.6875 111.079C66.7645 111.224 66.8891 111.337 67.0402 111.4Z" fill="#F2F2F2"/>
<path d="M59.4363 106.153C59.3929 106.344 59.3645 106.539 59.3516 106.734L44.1364 115.512L40.4382 113.383L36.4956 118.544L42.6764 122.95C43.1757 123.305 43.777 123.49 44.39 123.475C45.0029 123.46 45.5946 123.246 46.076 122.867L61.7654 110.489C62.4734 110.751 63.2445 110.792 63.9761 110.605C64.7076 110.418 65.3649 110.013 65.8606 109.443C66.3563 108.874 66.6668 108.167 66.7509 107.417C66.835 106.666 66.6887 105.908 66.3314 105.243C65.9741 104.578 65.4228 104.037 64.7508 103.693C64.0788 103.349 63.3179 103.218 62.5694 103.316C61.8209 103.415 61.1202 103.74 60.5605 104.246C60.0008 104.753 59.6087 105.418 59.4363 106.153Z" fill="#FFB8B8"/>
<path d="M43.6277 115.928L38.7102 122.301C38.5703 122.482 38.393 122.631 38.1903 122.738C37.9875 122.845 37.7642 122.906 37.5355 122.919C37.3068 122.931 37.0781 122.894 36.865 122.811C36.6518 122.727 36.4592 122.598 36.3004 122.433L30.7334 116.652C29.8098 115.931 29.2099 114.873 29.0651 113.71C28.9203 112.547 29.2425 111.375 29.961 110.449C30.6796 109.523 31.7358 108.92 32.8982 108.772C34.0606 108.624 35.2343 108.943 36.162 109.659L43.1441 113.563C43.344 113.675 43.5174 113.829 43.6526 114.013C43.7878 114.198 43.8815 114.41 43.9274 114.635C43.9733 114.859 43.9703 115.091 43.9186 115.314C43.8669 115.537 43.7677 115.746 43.6277 115.928Z" fill="#3F3D56"/>
<path d="M23.4902 100.71C28.2947 100.71 32.1895 96.8153 32.1895 92.0108C32.1895 87.2063 28.2947 83.3115 23.4902 83.3115C18.6857 83.3115 14.7909 87.2063 14.7909 92.0108C14.7909 96.8153 18.6857 100.71 23.4902 100.71Z" fill="#FFB8B8"/>
<path d="M31.7019 216.57H36.0443L38.1099 199.821L31.7012 199.821L31.7019 216.57Z" fill="#FFB8B8"/>
<path d="M30.5943 215.152L39.1458 215.152H39.1462C39.8618 215.152 40.5705 215.293 41.2317 215.566C41.8929 215.84 42.4937 216.242 42.9997 216.748C43.5058 217.254 43.9072 217.855 44.1811 218.516C44.455 219.177 44.5959 219.886 44.5959 220.601V220.778L30.5946 220.779L30.5943 215.152Z" fill="#2F2E41"/>
<path d="M16.8259 216.57H21.1682L23.2339 199.821L16.8251 199.821L16.8259 216.57Z" fill="#FFB8B8"/>
<path d="M15.7183 215.152L24.2698 215.152H24.2701C24.9858 215.152 25.6945 215.293 26.3557 215.566C27.0169 215.84 27.6177 216.242 28.1237 216.748C28.6298 217.254 29.0312 217.855 29.3051 218.516C29.5789 219.177 29.7199 219.886 29.7199 220.601V220.778L15.7185 220.779L15.7183 215.152Z" fill="#2F2E41"/>
<path d="M30.399 210.213L25.9697 175.944C25.9674 175.898 25.9473 175.855 25.9138 175.824C25.8803 175.794 25.836 175.777 25.7905 175.778C25.7677 175.778 25.7449 175.781 25.7237 175.79C25.7024 175.798 25.683 175.81 25.6667 175.826C25.6504 175.842 25.6375 175.861 25.6288 175.882C25.6201 175.903 25.6157 175.926 25.616 175.949L24.3432 209.721C24.3289 210.133 24.1547 210.524 23.8574 210.81C23.5601 211.097 23.1631 211.256 22.7503 211.255H17.4907C17.074 211.257 16.673 211.095 16.3748 210.804C16.0766 210.513 15.9051 210.116 15.8974 209.699L14.532 153.431L38.0702 153.666L38.6577 210.116C38.6525 210.34 38.6 210.561 38.5037 210.763C38.4073 210.966 38.2693 211.146 38.0987 211.292C37.9317 211.435 37.7363 211.543 37.5252 211.606C37.3142 211.67 37.0921 211.688 36.8735 211.66L31.7729 211.674C31.4113 211.624 31.0777 211.452 30.8277 211.186C30.5776 210.921 30.4263 210.577 30.399 210.213Z" fill="#2F2E41"/>
<path d="M14.1833 154.97C13.92 154.869 13.6882 154.7 13.5115 154.48C13.3347 154.261 13.2195 153.998 13.1775 153.719L12.9426 122.795C11.9023 115.91 10.6719 109.163 16.6919 105.674L17.2223 104.082C17.2802 103.911 17.3892 103.76 17.5348 103.652C17.6805 103.544 17.8557 103.483 18.0371 103.477L29.4571 103.151C29.6349 103.145 29.8102 103.193 29.9601 103.289C30.1099 103.384 30.2271 103.523 30.2963 103.687L31.1457 105.669L31.4473 105.841C34.3164 107.477 36.6396 109.922 38.1263 112.871C39.6129 115.82 40.1971 119.142 39.8057 122.421L39.1527 127.934L38.6889 153.697C38.6828 153.98 38.6023 154.256 38.4554 154.498C38.3085 154.739 38.1005 154.938 37.8522 155.074C34.5346 156.89 30.8592 157.511 27.3814 157.511C21.5379 157.511 16.2549 155.756 14.1833 154.97Z" fill="#3F3D56"/>
<path d="M23.207 101.032C21.8977 101.061 20.5972 100.812 19.3911 100.301C18.1849 99.7914 17.1004 99.0318 16.2087 98.0727C15.317 97.1135 14.6384 95.9766 14.2175 94.7365C13.7965 93.4964 13.6428 92.1813 13.7663 90.8775C13.8898 89.5738 14.2878 88.3109 14.9342 87.1719C15.5805 86.033 16.4606 85.0437 17.5165 84.2691C18.5725 83.4945 19.7804 82.9521 21.0609 82.6776C22.3413 82.4031 23.6654 82.4026 24.9461 82.6763C26.8592 81.5147 29.0834 80.7331 31.3126 80.9319C33.5419 81.1307 35.7465 82.4542 36.5801 84.5312C37.4137 86.6083 36.5182 89.3462 34.4454 90.1903C33.1165 90.7314 31.6159 90.469 30.1977 90.2508C28.7796 90.0325 27.2325 89.8901 25.9983 90.6219C24.7641 91.3536 24.2093 93.3157 25.3146 94.2305C25.9006 94.7347 26.319 95.4054 26.5142 96.1533C26.7093 96.9013 26.6719 97.691 26.407 98.4171C25.8515 99.8538 24.3352 101.008 23.207 101.032Z" fill="#2F2E41"/>
<path d="M55.608 220.9H0.354191C0.260254 220.9 0.170164 220.863 0.10374 220.796C0.0373162 220.73 0 220.64 0 220.546C0 220.452 0.0373162 220.362 0.10374 220.295C0.170164 220.229 0.260254 220.192 0.354191 220.192H55.608C55.702 220.192 55.7921 220.229 55.8585 220.295C55.9249 220.362 55.9622 220.452 55.9622 220.546C55.9622 220.64 55.9249 220.73 55.8585 220.796C55.7921 220.863 55.702 220.9 55.608 220.9Z" fill="#CCCCCC"/>
</g>
<defs>
<clipPath id="clip0_14_884">
<rect width="300" height="220.9" fill="white"/>
</clipPath>
</defs>
</svg>
