<svg width="300" height="246" viewBox="0 0 300 246" fill="none" xmlns="http://www.w3.org/2000/svg">
<g clip-path="url(#clip0_14_1375)">
<path d="M74.0486 224.464L74.6588 237.326L74.6588 237.326C74.7617 239.5 73.9969 241.626 72.5327 243.236C71.0685 244.846 69.0247 245.808 66.8508 245.911L66.5845 245.924L65.5855 224.865L74.0486 224.464Z" fill="#2F2E41"/>
<path d="M256.912 202.728C250.786 214.683 243.016 226.244 233.185 236.708C232.967 236.945 232.746 237.175 232.524 237.409L209.231 226.382C209.374 226.146 209.53 225.88 209.698 225.589C219.703 208.47 280.102 104.042 278.193 80.3899C278.416 82.3406 285.575 146.851 256.912 202.728Z" fill="#E6E6E6"/>
<path d="M237.679 238.836C237.353 239.021 237.018 239.202 236.682 239.378L219.208 231.106C219.453 230.932 219.737 230.727 220.064 230.497C225.418 226.653 241.336 215.122 256.912 202.728C273.65 189.41 289.997 175.1 292.424 168.269C291.931 169.836 276.61 217.448 237.679 238.836Z" fill="#E6E6E6"/>
<path d="M29.0662 245.41C43.9593 245.41 56.0325 233.337 56.0325 218.444C56.0325 203.551 43.9593 191.478 29.0662 191.478C14.1731 191.478 2.09991 203.551 2.09991 218.444C2.09991 233.337 14.1731 245.41 29.0662 245.41Z" fill="#B0D7FF"/>
<path d="M39.868 207.128H18.2644C17.3098 207.129 16.3946 207.509 15.7196 208.184C15.0446 208.859 14.6649 209.774 14.6638 210.728V226.16C14.6649 227.114 15.0445 228.029 15.7196 228.704C16.3946 229.379 17.3098 229.759 18.2644 229.76H39.868C40.8226 229.759 41.7378 229.379 42.4129 228.704C43.0879 228.029 43.4676 227.114 43.4686 226.16V210.728C43.4676 209.774 43.0879 208.859 42.4128 208.184C41.7378 207.509 40.8226 207.129 39.868 207.128ZM39.868 209.185C39.997 209.186 40.1254 209.203 40.2502 209.235L29.0687 218.155L17.9526 209.217C18.0552 209.196 18.1596 209.185 18.2644 209.185H39.868ZM39.868 227.703H18.2644C17.8553 227.702 17.463 227.54 17.1738 227.25C16.8845 226.961 16.7217 226.569 16.7213 226.16V210.867L28.4216 220.275C28.6038 220.421 28.8305 220.501 29.0642 220.502C29.298 220.502 29.525 220.423 29.7077 220.277L41.4111 210.941V226.16C41.4107 226.569 41.2479 226.961 40.9587 227.25C40.6694 227.54 40.2771 227.702 39.868 227.703Z" fill="white"/>
<path d="M133.135 179.512L139.169 179.561C139.78 179.566 140.384 179.438 140.94 179.186C141.496 178.933 141.99 178.562 142.388 178.099C142.786 177.636 143.078 177.092 143.244 176.504C143.41 175.917 143.445 175.3 143.348 174.697C143.244 174.048 142.989 173.433 142.604 172.901C142.218 172.369 141.713 171.935 141.129 171.633C140.545 171.332 139.899 171.172 139.242 171.166C138.585 171.16 137.935 171.308 137.346 171.599L131.656 174.407L112.194 178.747L103.857 170.222L99.0673 178.11L110.318 186.803L133.135 179.512Z" fill="#FFB8B8"/>
<path d="M132.005 241.851L124.896 243.218C120.04 227.911 114.779 213.416 114.779 202.205C107.908 209.853 99.3861 214.229 89.3516 215.603L90.4453 198.651L98.6478 194.276L111.202 188.482C112.301 187.975 113.486 187.681 114.695 187.618C117.046 187.494 119.359 188.244 121.189 189.724C123.019 191.203 124.238 193.307 124.609 195.631L132.005 241.851Z" fill="#2F2E41"/>
<path d="M97.9642 213.552L95.1309 215.705C93.9125 216.631 92.4733 217.222 90.9559 217.42C89.4385 217.618 87.8957 217.416 86.4807 216.833C78.3654 210.75 72.6 212.545 67.3746 221.726C61.1069 214.652 59.5606 204.436 65.1543 193.866L96.187 194.55L102.476 192.636L97.9642 213.552Z" fill="#2F2E41"/>
<path d="M87.6292 245.23C85.851 245.777 83.937 245.681 82.2225 244.959C80.5079 244.237 79.1023 242.934 78.2517 241.279C75.4629 238.823 73.1098 235.306 71.0688 231.029C69.6045 227.892 68.347 224.662 67.3046 221.361C65.8924 216.999 68.2538 212.234 72.6489 210.929C72.7796 210.89 72.9119 210.853 73.0458 210.819C78.9131 209.313 84.9383 212.697 86.9439 218.413L92.7758 235.034C93.1203 236.015 93.268 237.056 93.2106 238.095C93.1531 239.133 92.8916 240.151 92.4409 241.089C91.9902 242.027 91.3592 242.867 90.5839 243.561C89.8087 244.255 88.9042 244.789 87.9224 245.134C87.8253 245.168 87.7276 245.2 87.6292 245.23Z" fill="#2F2E41"/>
<path opacity="0.2" d="M70.0757 229.137C70.0757 229.137 76.9111 236.792 78.2782 241.167Z" fill="black"/>
<path d="M43.5654 193.007L41.2777 198.59C41.0462 199.155 40.9408 199.764 40.9687 200.374C40.9966 200.984 41.1572 201.58 41.4393 202.122C41.7215 202.663 42.1183 203.136 42.6022 203.509C43.0861 203.881 43.6453 204.143 44.241 204.277C44.8821 204.422 45.5481 204.413 46.1854 204.253C46.8226 204.093 47.4134 203.785 47.9102 203.355C48.4069 202.925 48.7958 202.384 49.0454 201.777C49.295 201.169 49.3985 200.511 49.3474 199.856L48.8545 193.53L52.0553 173.848L63.0672 169.274L57.5231 161.897L45.2728 169.114L43.5654 193.007Z" fill="#FFB8B8"/>
<path d="M98.2376 193.866C90.3817 207.062 74.7207 212.171 61.3072 201.838C63.6667 194.086 71.2849 172.659 66.3634 171.838C55.9139 176.22 55.8988 165.932 53.9442 160.783L77.7314 152.033L90.582 155.588L93.2162 156.522C94.9305 157.131 96.4175 158.249 97.477 159.728C98.5365 161.207 99.1179 162.974 99.1428 164.793C93.7447 172.592 89.7486 180.911 98.2376 193.866Z" fill="#B0D7FF"/>
<path d="M101.245 183.203L91.8123 175.41L94.9566 157.228L107.807 170.899L101.245 183.203Z" fill="#B0D7FF"/>
<path d="M257.766 58.2961H256.417V21.3708C256.417 15.7029 254.166 10.2672 250.158 6.25936C246.15 2.25156 240.714 0 235.046 0H156.815C151.147 0 145.711 2.25156 141.703 6.25936C137.696 10.2672 135.444 15.7029 135.444 21.3708V223.946C135.444 229.614 137.696 235.05 141.703 239.058C145.711 243.066 151.147 245.317 156.815 245.317H235.046C240.714 245.317 246.15 243.066 250.158 239.058C254.165 235.05 256.417 229.614 256.417 223.946V84.5801H257.765L257.766 58.2961Z" fill="#3F3D56"/>
<path d="M235.909 5.55943H225.697C226.167 6.71085 226.346 7.96016 226.219 9.19728C226.093 10.4344 225.664 11.6213 224.97 12.6535C224.276 13.6857 223.339 14.5315 222.242 15.1162C221.144 15.701 219.92 16.0069 218.676 16.0068H173.859C172.615 16.0067 171.391 15.7008 170.293 15.1161C169.196 14.5314 168.259 13.6857 167.566 12.6537C166.872 11.6216 166.443 10.4349 166.316 9.19791C166.189 7.96096 166.369 6.71179 166.838 5.56044H157.299C153.066 5.56044 149.007 7.24194 146.014 10.235C143.02 13.2281 141.339 17.2876 141.339 21.5204V223.798C141.339 228.03 143.02 232.09 146.014 235.083C149.007 238.076 153.066 239.758 157.299 239.758H235.906C240.139 239.758 244.198 238.076 247.191 235.083C250.184 232.09 251.866 228.03 251.866 223.798V21.5194C251.866 17.2866 250.184 13.2271 247.191 10.234C244.198 7.24091 240.139 5.55942 235.906 5.55942L235.909 5.55943Z" fill="white"/>
<path d="M196.739 228.454C201.579 228.454 205.503 224.53 205.503 219.69C205.503 214.849 201.579 210.926 196.739 210.926C191.899 210.926 187.975 214.849 187.975 219.69C187.975 224.53 191.899 228.454 196.739 228.454Z" fill="#E6E6E6"/>
<path d="M161.185 138.64C160.357 138.64 159.682 139.409 159.682 140.355C159.682 141.3 160.357 142.07 161.185 142.07H232.02C232.848 142.07 233.522 141.3 233.522 140.355C233.522 139.409 232.848 138.64 232.02 138.64H161.185Z" fill="#E6E6E6"/>
<path d="M161.185 179.089C160.357 179.089 159.682 179.859 159.682 180.804C159.682 181.75 160.357 182.519 161.185 182.519H232.02C232.848 182.519 233.522 181.75 233.522 180.804C233.522 179.859 232.848 179.089 232.02 179.089H161.185Z" fill="#E6E6E6"/>
<path d="M161.185 148.93C160.357 148.93 159.682 149.699 159.682 150.645C159.682 151.591 160.357 152.36 161.185 152.36H191.665C192.494 152.36 193.168 151.591 193.168 150.645C193.168 149.699 192.494 148.93 191.665 148.93H161.185Z" fill="#E6E6E6"/>
<path d="M161.185 158.738C160.357 158.738 159.682 159.508 159.682 160.453C159.682 161.399 160.357 162.168 161.185 162.168H232.02C232.848 162.168 233.522 161.399 233.522 160.453C233.522 159.508 232.848 158.738 232.02 158.738H161.185Z" fill="#E6E6E6"/>
<path d="M161.185 169.029C160.357 169.029 159.682 169.798 159.682 170.744C159.682 171.689 160.357 172.459 161.185 172.459H191.665C192.494 172.459 193.168 171.689 193.168 170.744C193.168 169.798 192.494 169.029 191.665 169.029H161.185Z" fill="#E6E6E6"/>
<path d="M174.557 60.5485H218.652C219.139 60.5491 219.606 60.7428 219.95 61.0872C220.295 61.4317 220.488 61.8986 220.489 62.3857V108.308C220.488 108.795 220.295 109.262 219.95 109.607C219.606 109.951 219.139 110.145 218.652 110.146H174.557C174.07 110.145 173.603 109.951 173.259 109.607C172.914 109.262 172.721 108.795 172.72 108.308V62.3857C172.721 61.8986 172.914 61.4317 173.259 61.0872C173.603 60.7428 174.07 60.5491 174.557 60.5485Z" fill="#B0D7FF"/>
<path d="M209.256 100.676C209.42 100.676 209.582 100.644 209.734 100.581C209.886 100.519 210.023 100.427 210.14 100.311C210.256 100.195 210.348 100.058 210.411 99.9065C210.473 99.7551 210.506 99.5927 210.506 99.4288C210.506 99.2648 210.474 99.1024 210.411 98.9509C210.348 98.7994 210.256 98.6618 210.14 98.5459C210.024 98.43 209.887 98.3381 209.735 98.2754C209.584 98.2128 209.421 98.1806 209.257 98.1808H183.953C183.789 98.1805 183.627 98.2125 183.475 98.275C183.323 98.3375 183.186 98.4292 183.069 98.545C182.953 98.6608 182.861 98.7984 182.798 98.9498C182.736 99.1012 182.703 99.2636 182.703 99.4276C182.703 99.5915 182.735 99.7539 182.798 99.9054C182.861 100.057 182.953 100.195 183.069 100.31C183.185 100.426 183.322 100.518 183.474 100.581C183.625 100.644 183.788 100.676 183.952 100.676H209.256Z" fill="white"/>
<path d="M209.256 93.3264C209.587 93.3264 209.904 93.195 210.138 92.9611C210.372 92.7272 210.503 92.4099 210.503 92.0791C210.503 91.7483 210.372 91.431 210.138 91.1971C209.904 90.9632 209.587 90.8318 209.256 90.8318H183.953C183.622 90.8316 183.305 90.9629 183.071 91.1967C182.837 91.4305 182.705 91.7477 182.705 92.0785C182.705 92.4093 182.836 92.7266 183.07 92.9607C183.304 93.1947 183.621 93.3263 183.952 93.3264H209.256Z" fill="white"/>
<path d="M196.604 70.0185C198.157 70.0185 199.675 70.479 200.966 71.3417C202.258 72.2045 203.264 73.4307 203.858 74.8654C204.452 76.3 204.608 77.8787 204.305 79.4017C204.002 80.9247 203.254 82.3237 202.156 83.4218C201.058 84.5198 199.659 85.2676 198.136 85.5705C196.613 85.8735 195.034 85.718 193.6 85.1237C192.165 84.5295 190.939 83.5231 190.076 82.232C189.213 80.9408 188.753 79.4228 188.753 77.87C188.755 75.7884 189.583 73.7927 191.055 72.3208C192.527 70.8488 194.523 70.0209 196.604 70.0185Z" fill="white"/>
<path d="M96.4261 149.653H73.1172C72.6377 149.652 72.178 149.462 71.839 149.123C71.5 148.784 71.3093 148.324 71.3087 147.844V137.797C71.3087 134.227 72.7271 130.803 75.2519 128.278C77.7767 125.753 81.201 124.335 84.7716 124.335C88.3422 124.335 91.7666 125.753 94.2914 128.278C96.8162 130.803 98.2346 134.227 98.2346 137.797V147.844C98.234 148.324 98.0433 148.784 97.7043 149.123C97.3652 149.462 96.9056 149.652 96.4261 149.653Z" fill="#2F2E41"/>
<path d="M96.006 143.912C98.6208 139.128 96.8629 133.131 92.0796 130.516C87.2963 127.901 81.2989 129.659 78.6841 134.443C76.0694 139.226 77.8273 145.223 82.6106 147.838C87.3939 150.453 93.3912 148.695 96.006 143.912Z" fill="#FFB6B6"/>
<path d="M101.42 138.802H87.1667L87.0205 136.756L86.2897 138.802H84.0951L83.8055 134.746L82.3571 138.802H78.1106V138.601C78.1138 135.778 79.2368 133.071 81.2333 131.074C83.2298 129.078 85.9368 127.955 88.7603 127.951H90.7697C93.5933 127.955 96.3002 129.078 98.2968 131.074C100.293 133.071 101.416 135.778 101.42 138.601V138.802Z" fill="#2F2E41"/>
<path d="M87.0501 151.528C86.9427 151.528 86.8357 151.519 86.73 151.5L76.2934 149.659V132.41H87.7821L87.4977 132.742C83.5403 137.357 86.5217 144.841 88.6511 148.891C88.808 149.188 88.878 149.523 88.853 149.857C88.8279 150.192 88.7089 150.513 88.5095 150.783C88.3426 151.014 88.1232 151.202 87.8695 151.331C87.6158 151.461 87.335 151.528 87.0501 151.528Z" fill="#2F2E41"/>
<path d="M121.798 236.688L134.674 236.688H134.674C136.851 236.688 138.938 237.552 140.477 239.091C142.015 240.63 142.88 242.717 142.88 244.893V245.16L121.798 245.161L121.798 236.688Z" fill="#2F2E41"/>
<path d="M299.663 245.996H0.337079C0.24768 245.996 0.161942 245.96 0.0987278 245.897C0.0355133 245.834 0 245.748 0 245.659C0 245.569 0.0355133 245.484 0.0987278 245.42C0.161942 245.357 0.24768 245.322 0.337079 245.322H299.663C299.752 245.322 299.838 245.357 299.901 245.42C299.965 245.484 300 245.569 300 245.659C300 245.748 299.965 245.834 299.901 245.897C299.838 245.96 299.752 245.996 299.663 245.996Z" fill="#CACACA"/>
</g>
<defs>
<clipPath id="clip0_14_1375">
<rect width="300" height="245.996" fill="white"/>
</clipPath>
</defs>
</svg>
