<svg width="319" height="292" viewBox="0 0 319 292" fill="none" xmlns="http://www.w3.org/2000/svg">
<g clip-path="url(#clip0_5_517)" filter="url(#filter0_d_5_517)">
<path d="M153.654 27.3933C149.098 35.2488 157.677 48.4848 149.031 51.2333L149.743 50.5204C154.962 44.0953 144.053 30.496 149.272 24.0709C150.083 23.1284 150.78 22.0928 151.346 20.9858" fill="#2F2E41"/>
<path d="M196.325 142.639C196.475 141.853 196.45 141.044 196.253 140.268C196.056 139.493 195.692 138.77 195.185 138.151C194.679 137.531 194.043 137.031 193.323 136.684C192.602 136.337 191.814 136.152 191.015 136.143L179.752 103.396L173.518 111.349L185.426 141.947C185.5 143.292 186.064 144.564 187.012 145.52C187.959 146.477 189.225 147.053 190.568 147.138C191.912 147.223 193.24 146.812 194.301 145.983C195.362 145.154 196.082 143.964 196.325 142.639Z" fill="#FFB8B8"/>
<path d="M146.817 63.5748C146.817 63.5748 146.467 51.7207 157.059 58.5114C167.651 65.3021 190.713 128.915 190.713 128.915L179.236 135.129L153.183 76.916L146.817 63.5748Z" fill="#B0D7FF"/>
<path d="M178.067 266.746L172.778 269.007L161.542 249.667L169.349 246.329L178.067 266.746Z" fill="#FFB6B6"/>
<path d="M184.774 274.723L180.981 276.345L178.774 273.05L178.57 277.376L168.51 281.678C168.028 281.884 167.492 281.931 166.982 281.811C166.471 281.691 166.012 281.411 165.672 281.012C165.332 280.612 165.128 280.115 165.091 279.591C165.053 279.068 165.184 278.546 165.463 278.102L171.126 269.114L169.579 265.491L178.245 262.382L184.774 274.723Z" fill="#2F2E41"/>
<path d="M95.1534 273.306L89.4087 273.025L87.7573 250.715L96.2367 251.129L95.1534 273.306Z" fill="#FFB6B6"/>
<path d="M97.6996 283.415L93.5797 283.214L93.0344 279.285L90.9609 283.086L80.0339 282.551C79.5101 282.526 79.0082 282.333 78.6015 282.002C78.1948 281.671 77.9045 281.218 77.7731 280.71C77.6416 280.202 77.6759 279.665 77.8709 279.178C78.0659 278.691 78.4114 278.279 78.857 278.002L87.8775 272.398L88.0697 268.462L97.2211 269.46L97.6996 283.415Z" fill="#2F2E41"/>
<path d="M109.666 128.284C109.666 128.284 97.9838 160.146 97.795 163.712C97.6063 167.278 94.2745 212.367 91.4802 214.987C88.6859 217.607 80.1431 258.225 86.7903 261.402C93.4374 264.579 114.409 259.316 114.409 259.316L121.704 211.337L124.183 174.579C124.183 174.579 131.728 261.137 145.412 260.882C159.097 260.628 175.772 255.413 175.772 255.413L156.618 202.993C156.618 202.993 156.889 140.934 152.449 128.417C148.01 115.9 109.666 128.284 109.666 128.284Z" fill="#2F2E41"/>
<path d="M144.332 46.1926L128.687 47.6268L126.166 55.37C126.166 55.37 113.073 62.5663 115.972 65.8357C118.871 69.105 115.324 91.1373 115.324 91.1373L116.125 109.021C116.125 109.021 115.264 121.412 112.688 124.267C110.112 127.121 103.374 134.122 108.135 130.773C124.831 119.03 154.013 128.938 154.013 128.938L149.844 103.384C149.844 103.384 159.313 61.5464 155.576 58.013C151.839 54.4796 148.313 54.0331 148.313 54.0331L144.332 46.1926Z" fill="#B0D7FF"/>
<path d="M62.121 127.25C62.9071 127.103 63.6515 126.786 64.3018 126.32C64.9521 125.855 65.4925 125.252 65.885 124.555C66.2774 123.858 66.5123 123.083 66.5732 122.285C66.6341 121.487 66.5194 120.686 66.2372 119.937L92.6257 97.5319L82.9568 94.6108L58.803 116.837C57.5776 117.394 56.5992 118.383 56.0532 119.614C55.5072 120.845 55.4315 122.234 55.8405 123.518C56.2495 124.802 57.1147 125.89 58.2723 126.578C59.4298 127.266 60.7992 127.505 62.121 127.25Z" fill="#FFB8B8"/>
<path d="M129.138 68.6436C129.138 68.6436 134.337 57.9868 121.89 59.8072C109.443 61.6276 62.2419 110.082 62.2419 110.082L70.1411 120.476L117.845 78.1753L129.138 68.6436Z" fill="#525FE1"/>
<path d="M108.868 50.5674L59.5184 113.84C58.6647 114.938 58.2808 116.33 58.4508 117.711C58.6209 119.092 59.331 120.349 60.4256 121.207C71.8859 149.055 106.172 169.706 146.505 188.449C147.602 189.305 148.993 189.689 150.373 189.519C151.753 189.349 153.01 188.638 153.866 187.542L203.216 124.269C204.071 123.171 204.455 121.779 204.285 120.398C204.115 119.016 203.404 117.759 202.309 116.902C168.462 97.775 139.371 75.6149 116.23 49.6595C115.132 48.8051 113.741 48.4209 112.362 48.5911C110.982 48.7613 109.725 49.472 108.868 50.5674Z" fill="#E6E6E6"/>
<path d="M199.753 122.829L184.731 142.089C175.555 153.783 162.128 161.368 147.382 163.186C132.636 165.005 117.771 160.91 106.032 151.795L63.9348 118.91C63.3112 118.423 62.9062 117.708 62.8087 116.922C62.7112 116.136 62.9291 115.344 63.4146 114.718L111.102 53.578C111.59 52.9549 112.305 52.5509 113.09 52.4548C113.876 52.3587 114.667 52.5783 115.291 53.0654C136.586 80.585 165.091 102.001 199.237 118.641C199.859 119.129 200.263 119.843 200.36 120.628C200.457 121.414 200.238 122.205 199.753 122.829Z" fill="white"/>
<path d="M107.884 85.1082L98.1011 97.651C97.8415 97.9833 97.4607 98.1988 97.0425 98.2502C96.6242 98.3016 96.2026 98.1847 95.8704 97.9252C95.5382 97.6656 95.3226 97.2848 95.2708 96.8662C95.2191 96.4476 95.3355 96.0256 95.5945 95.693L105.377 83.1501C105.506 82.9852 105.665 82.8472 105.847 82.744C106.029 82.6408 106.229 82.5746 106.436 82.5489C106.644 82.5232 106.854 82.5387 107.055 82.5944C107.257 82.6502 107.445 82.7451 107.61 82.8737C107.775 83.0024 107.912 83.1622 108.015 83.3442C108.118 83.5261 108.184 83.7266 108.21 83.9341C108.235 84.1416 108.219 84.3521 108.164 84.5536C108.108 84.755 108.013 84.9435 107.884 85.1082Z" fill="#CCCCCC"/>
<path d="M126.234 75.8043L104.749 103.349C104.621 103.514 104.461 103.652 104.28 103.755C104.098 103.858 103.898 103.924 103.691 103.95C103.483 103.975 103.273 103.96 103.072 103.904C102.871 103.848 102.682 103.753 102.518 103.625C102.353 103.496 102.216 103.336 102.113 103.155C102.01 102.973 101.944 102.772 101.918 102.565C101.893 102.358 101.908 102.147 101.964 101.946C102.02 101.744 102.114 101.556 102.243 101.391L123.727 73.8462C123.855 73.6811 124.015 73.5429 124.197 73.4396C124.378 73.3363 124.579 73.2699 124.786 73.2441C124.993 73.2183 125.204 73.2338 125.405 73.2895C125.607 73.3452 125.795 73.4401 125.96 73.5689C126.125 73.6976 126.263 73.8575 126.366 74.0396C126.469 74.2216 126.535 74.4222 126.56 74.6298C126.585 74.8375 126.57 75.0481 126.514 75.2496C126.458 75.4511 126.362 75.6396 126.234 75.8043Z" fill="#CCCCCC"/>
<path d="M89.592 121.749C95.3755 121.749 100.064 117.057 100.064 111.269C100.064 105.481 95.3755 100.789 89.592 100.789C83.8084 100.789 79.1199 105.481 79.1199 111.269C79.1199 117.057 83.8084 121.749 89.592 121.749Z" fill="#6E6D7A"/>
<path d="M127.374 97.5741L100.988 131.405C100.712 131.686 100.343 131.855 99.9511 131.881C99.559 131.907 99.171 131.787 98.8612 131.545C98.5514 131.303 98.3414 130.956 98.2713 130.569C98.2012 130.182 98.2758 129.782 98.481 129.447L124.868 95.616C125.143 95.3354 125.512 95.166 125.904 95.1401C126.296 95.1142 126.684 95.2336 126.994 95.4756C127.304 95.7177 127.514 96.0653 127.584 96.4523C127.654 96.8393 127.579 97.2386 127.374 97.5741Z" fill="#CCCCCC"/>
<path d="M144.492 89.8499L107.662 137.07C107.387 137.35 107.018 137.52 106.626 137.546C106.234 137.571 105.846 137.452 105.536 137.21C105.226 136.968 105.016 136.62 104.946 136.233C104.876 135.846 104.951 135.447 105.156 135.112L141.985 87.8918C142.261 87.6112 142.629 87.4417 143.022 87.4159C143.414 87.39 143.802 87.5094 144.112 87.7515C144.421 87.9935 144.631 88.3411 144.701 88.7281C144.772 89.1151 144.697 89.5144 144.492 89.8499Z" fill="#CCCCCC"/>
<path d="M144.364 110.846L117.977 144.677C117.702 144.958 117.333 145.127 116.941 145.153C116.548 145.179 116.161 145.059 115.851 144.817C115.541 144.575 115.331 144.228 115.261 143.841C115.191 143.454 115.265 143.054 115.47 142.719L141.857 108.888C142.133 108.607 142.501 108.438 142.894 108.412C143.286 108.386 143.674 108.505 143.984 108.747C144.293 108.989 144.503 109.337 144.573 109.724C144.644 110.111 144.569 110.51 144.364 110.846Z" fill="#CCCCCC"/>
<path d="M179.278 115.018L152.892 148.849C152.616 149.13 152.247 149.299 151.855 149.325C151.463 149.351 151.075 149.231 150.765 148.989C150.455 148.747 150.245 148.4 150.175 148.013C150.105 147.626 150.18 147.226 150.385 146.891L176.772 113.06C177.047 112.779 177.416 112.61 177.808 112.584C178.2 112.558 178.588 112.678 178.898 112.92C179.208 113.162 179.418 113.509 179.488 113.896C179.558 114.283 179.484 114.683 179.278 115.018Z" fill="#6E6D7A"/>
<path d="M161.482 103.122L124.652 150.341C124.377 150.622 124.008 150.792 123.616 150.817C123.224 150.843 122.836 150.724 122.526 150.482C122.216 150.24 122.006 149.892 121.936 149.505C121.866 149.118 121.941 148.719 122.146 148.383L158.975 101.164C159.251 100.883 159.619 100.714 160.012 100.688C160.404 100.662 160.792 100.781 161.102 101.023C161.411 101.265 161.621 101.613 161.691 102C161.762 102.387 161.687 102.786 161.482 103.122Z" fill="#CCCCCC"/>
<path d="M118.102 26.2026C118.101 28.7484 118.724 31.2555 119.918 33.5039C121.111 35.7523 122.837 37.6731 124.946 39.0978C127.054 40.5225 129.479 41.4075 132.009 41.6751C134.539 41.9427 137.096 41.5847 139.455 40.6326C141.814 39.6805 143.904 38.1633 145.54 36.2143C147.177 34.2653 148.31 31.944 148.841 29.4542C149.372 26.9645 149.284 24.3823 148.585 21.9345C147.886 19.4867 146.597 17.248 144.832 15.415L144.757 15.3405C144.633 15.2098 144.509 15.0791 144.378 14.9547C144.377 14.9547 144.377 14.9545 144.376 14.9542C144.375 14.9539 144.374 14.9535 144.374 14.9529C144.373 14.9523 144.373 14.9516 144.372 14.9509C144.372 14.9501 144.372 14.9493 144.372 14.9485C144.21 14.7992 144.049 14.6498 143.881 14.5068C141.635 12.5364 138.87 11.2556 135.916 10.8176C132.961 10.3795 129.944 10.8029 127.224 12.0369C124.503 13.271 122.197 15.2635 120.579 17.7758C118.961 20.2881 118.101 23.2138 118.102 26.2026Z" fill="#2F2E41"/>
<path d="M137.471 42.8427C144.669 42.8427 150.503 37.0037 150.503 29.801C150.503 22.5982 144.669 16.7592 137.471 16.7592C130.274 16.7592 124.44 22.5982 124.44 29.801C124.44 37.0037 130.274 42.8427 137.471 42.8427Z" fill="#FFB8B8"/>
<path d="M123.579 33.2766C122.305 27.5318 124.146 21.0957 128.16 17.2605C130.179 15.3697 132.69 14.0873 135.405 13.5607C138.119 13.0342 140.927 13.2848 143.506 14.2838C143.834 14.4162 144.161 14.5611 144.483 14.7123L144.633 14.7829V14.8048C144.662 14.8249 144.691 14.846 144.72 14.8674C144.78 14.9244 144.854 14.9653 144.935 14.9863C146.066 14.9567 147.191 15.1667 148.236 15.6025C149.281 16.0384 150.222 16.6903 150.997 17.5154C153.017 19.7087 153.968 23.2531 153.677 27.4956L153.668 27.6283L153.555 27.6989C152.025 28.6686 150.439 29.5442 148.803 30.3207C143.082 33.0127 137.859 33.5116 132.84 31.8437L132.748 31.8131L130.641 28.2794C130.208 30.7166 130.439 38.8007 127.957 39.2387L123.633 33.5202L123.579 33.2766Z" fill="#2F2E41"/>
<path d="M96.1467 44.6319C100.581 42.3412 94.8779 34.0274 96.024 29.1665C97.1701 24.3056 105.423 22.7421 105.949 17.7755C106.475 12.8089 107.712 7.68643 110.986 3.91775C113.079 1.50956 116.162 -0.268249 119.337 0.0333915C120.411 0.135447 121.451 0.467986 122.385 1.00836C123.319 1.54873 124.126 2.28424 124.75 3.16479C125.375 4.04534 125.802 5.05024 126.004 6.11106C126.205 7.17188 126.176 8.26369 125.918 9.31212C126.822 8.03038 129.161 8.30818 129.74 9.76611C130.254 11.0622 129.117 12.6322 127.779 12.7468C126.028 14.9111 124.023 17.208 121.279 17.6445C120.842 17.745 120.388 17.7447 119.951 17.6438C119.514 17.5429 119.105 17.3439 118.757 17.0618C118.111 16.4416 118.061 15.2014 118.827 14.7379C115.379 16.1085 113.358 19.839 112.846 23.5162C112.334 27.1934 113.042 30.9139 113.509 34.5971C113.975 38.2803 114.176 42.1548 112.733 45.5751C111.028 49.6162 107.103 52.5126 102.819 53.4414C98.5349 54.3702 93.9727 53.4624 90.0951 51.4172C86.2176 49.3718 82.984 46.2493 80.3425 42.7487C84.8927 45.9822 91.1878 47.1935 96.1467 44.6319Z" fill="#2F2E41"/>
<path d="M131.246 28.958C126.69 36.8135 135.269 50.0495 126.623 52.798L127.335 52.0851C132.554 45.66 121.645 32.0608 126.864 25.6356C127.675 24.6931 128.372 23.6575 128.938 22.5505" fill="#2F2E41"/>
<path d="M124.188 33.1577C124.188 33.1577 128.048 18.7371 144.596 15.4088C144.614 15.4026 144.677 15.3777 144.757 15.3404C144.807 15.3093 144.869 15.2781 144.931 15.2471C144.745 15.1413 144.565 15.048 144.378 14.9546L144.376 14.9542L144.374 14.9528L144.372 14.9508L144.372 14.9484C144.21 14.7991 144.049 14.6498 143.881 14.5067L143.408 14.5254C143.408 14.5254 126.805 11.8939 124.188 33.1577Z" fill="#B0D7FF"/>
<path d="M4 283.47C3.9998 283.539 4.013 283.608 4.03885 283.671C4.0647 283.735 4.10268 283.793 4.15061 283.841C4.19853 283.89 4.25546 283.929 4.31812 283.955C4.38078 283.981 4.44793 283.995 4.51571 283.994H314.484C314.621 283.994 314.752 283.939 314.849 283.841C314.946 283.743 315 283.609 315 283.47C315 283.332 314.946 283.198 314.849 283.1C314.752 283.002 314.621 282.947 314.484 282.947H4.51569C4.44791 282.946 4.38076 282.96 4.31811 282.986C4.25545 283.012 4.19852 283.051 4.1506 283.1C4.10267 283.148 4.06469 283.206 4.03885 283.27C4.01301 283.333 3.9998 283.402 4 283.47Z" fill="#121212"/>
</g>
<defs>
<filter id="filter0_d_5_517" x="0" y="0" width="319" height="291.994" filterUnits="userSpaceOnUse" color-interpolation-filters="sRGB">
<feFlood flood-opacity="0" result="BackgroundImageFix"/>
<feColorMatrix in="SourceAlpha" type="matrix" values="0 0 0 0 0 0 0 0 0 0 0 0 0 0 0 0 0 0 127 0" result="hardAlpha"/>
<feOffset dy="4"/>
<feGaussianBlur stdDeviation="2"/>
<feComposite in2="hardAlpha" operator="out"/>
<feColorMatrix type="matrix" values="0 0 0 0 0 0 0 0 0 0 0 0 0 0 0 0 0 0 0.25 0"/>
<feBlend mode="normal" in2="BackgroundImageFix" result="effect1_dropShadow_5_517"/>
<feBlend mode="normal" in="SourceGraphic" in2="effect1_dropShadow_5_517" result="shape"/>
</filter>
<clipPath id="clip0_5_517">
<rect width="311" height="283.994" fill="white" transform="translate(4)"/>
</clipPath>
</defs>
</svg>
